<svg xmlns="http://www.w3.org/2000/svg" viewBox="0 0 25.86 29.29"><defs><style>.cls-1{fill:#fff;}</style></defs><title>Asset 60</title><g id="Layer_2" data-name="Layer 2"><g id="Layer_1-2" data-name="Layer 1"><path class="cls-1" d="M22.84,16.82H21.65V8.72a8.72,8.72,0,0,0-17.44,0v8.1H3a3,3,0,0,0-3,3v1.22a3,3,0,0,0,3,3H9.44v1.69a3.5,3.5,0,1,0,7,0V24.1h6.41a3,3,0,0,0,3-3V19.85A3,3,0,0,0,22.84,16.82ZM5.94,8.72a7,7,0,0,1,14,0v8.1h-14ZM14.7,25.79a1.77,1.77,0,1,1-3.53,0V24.1H14.7Zm9.43-4.72a1.3,1.3,0,0,1-1.29,1.3H3a1.3,1.3,0,0,1-1.3-1.3V19.85A1.3,1.3,0,0,1,3,18.55H22.84a1.3,1.3,0,0,1,1.29,1.3Z"/></g></g></svg>