<svg xmlns="http://www.w3.org/2000/svg" viewBox="0 0 19.05 19.05"><defs><style>.cls-1{fill:#212121;opacity:0.3;}</style></defs><title>Asset 70</title><g id="Layer_2" data-name="Layer 2"><g id="Layer_1-2" data-name="Layer 1"><path class="cls-1" d="M18,13.1a12.2,12.2,0,0,1-3.74-.59,1,1,0,0,0-1.07.25l-1.66,2.08A16,16,0,0,1,4.24,7.62L6.31,5.86a1.08,1.08,0,0,0,.25-1.08A11.8,11.8,0,0,1,6,1.05a1.06,1.06,0,0,0-1-1H1.26C.69,0,0,.25,0,1.05a18.15,18.15,0,0,0,18,18,1.12,1.12,0,0,0,1.05-1.25V14.15A1.06,1.06,0,0,0,18,13.1Z"/></g></g></svg>