<svg xmlns="http://www.w3.org/2000/svg" viewBox="0 0 20.69 26.14"><defs><style>.cls-1{fill:#692fdc;}</style></defs><title>Asset 53</title><g id="Layer_2" data-name="Layer 2"><g id="Layer_1-2" data-name="Layer 1"><path class="cls-1" d="M4.36,4.9H.55a.47.47,0,0,1-.49-.32A.49.49,0,0,1,.17,4L4,.17a.49.49,0,0,1,.6-.11A.47.47,0,0,1,4.9.55V4.36A.51.51,0,0,1,4.36,4.9ZM1.85,3.81h2v-2Z"/><path class="cls-1" d="M15.79,26.14a4.9,4.9,0,1,1,4.9-4.9A4.88,4.88,0,0,1,15.79,26.14Zm0-8.71a3.81,3.81,0,1,0,3.81,3.81A3.78,3.78,0,0,0,15.79,17.43Z"/><path class="cls-1" d="M12,21.78H1.64A1.61,1.61,0,0,1,0,20.15v-16L4.14,0H14.7a1.61,1.61,0,0,1,1.64,1.64V17.43h-.55A3.78,3.78,0,0,0,12,21.24ZM1.09,4.58V20.15a.52.52,0,0,0,.55.54H11a4.87,4.87,0,0,1,4.3-4.3V1.64a.52.52,0,0,0-.55-.55H4.58Z"/><path class="cls-1" d="M15.57,23.41a.84.84,0,0,1-.32-.1l-1.42-1a.55.55,0,0,1-.16-.77.54.54,0,0,1,.76-.16l.93.6,1.58-2.78A.61.61,0,0,1,17.7,19a.63.63,0,0,1,.22.77L16.06,23a.8.8,0,0,1-.32.28C15.63,23.41,15.57,23.41,15.57,23.41Z"/><path class="cls-1" d="M12.53,8.71H3.81a.51.51,0,0,1-.54-.54.52.52,0,0,1,.54-.55h8.72a.52.52,0,0,1,.54.55A.51.51,0,0,1,12.53,8.71Z"/><path class="cls-1" d="M12.53,12.53H3.81A.52.52,0,0,1,3.27,12a.51.51,0,0,1,.54-.54h8.72a.51.51,0,0,1,.54.54A.52.52,0,0,1,12.53,12.53Z"/><path class="cls-1" d="M9.26,16.34H3.81a.55.55,0,0,1,0-1.09H9.26a.55.55,0,0,1,0,1.09Z"/><path class="cls-1" d="M12,4.9H7.62a.51.51,0,0,1-.54-.54.52.52,0,0,1,.54-.55H12a.52.52,0,0,1,.55.55A.52.52,0,0,1,12,4.9Z"/></g></g></svg>