<svg xmlns="http://www.w3.org/2000/svg" viewBox="0 0 25.86 31"><defs><style>.cls-1{fill:#fff;}.cls-2{fill:#3acc6c;stroke:#3acc6c;stroke-miterlimit:10;}</style></defs><title>Asset 59</title><g id="Layer_2" data-name="Layer 2"><g id="Layer_1-2" data-name="Layer 1"><path class="cls-1" d="M22.84,18.54H21.65V10.43a8.72,8.72,0,0,0-17.44,0v8.11H3a3,3,0,0,0-3,3v1.23a3,3,0,0,0,3,3H9.44v1.7a3.5,3.5,0,0,0,7,0v-1.7h6.41a3,3,0,0,0,3-3V21.56A3,3,0,0,0,22.84,18.54ZM5.94,10.43a7,7,0,0,1,14,0v8.11h-14ZM14.7,27.51a1.77,1.77,0,0,1-3.53,0v-1.7H14.7Zm9.43-4.72a1.29,1.29,0,0,1-1.29,1.29H3a1.3,1.3,0,0,1-1.3-1.29V21.56A1.3,1.3,0,0,1,3,20.27H22.84a1.29,1.29,0,0,1,1.29,1.29Z"/><path class="cls-2" d="M24.85,4.42a4.14,4.14,0,0,1-4.33,3.92,4.14,4.14,0,0,1-4.33-3.92A4.14,4.14,0,0,1,20.52.5,4.14,4.14,0,0,1,24.85,4.42Z"/></g></g></svg>