<svg xmlns="http://www.w3.org/2000/svg" viewBox="0 0 17.19 23.39"><defs><style>.cls-1{fill:#515151;opacity:0.7;}</style></defs><title>Asset 51</title><g id="Layer_2" data-name="Layer 2"><g id="Layer_1-2" data-name="Layer 1"><path class="cls-1" d="M11.63,0H2.25A2.25,2.25,0,0,0,0,2.25v18.9a2.25,2.25,0,0,0,2.25,2.24H14.94a2.25,2.25,0,0,0,2.25-2.24V5.63Zm.47,2.8,2.33,2.35H12.1Zm3.46,18.35a.61.61,0,0,1-.62.61H2.25a.61.61,0,0,1-.62-.61V2.25a.61.61,0,0,1,.62-.62h8.23V6.78h5.08ZM4.05,19.31h9.09V17.68H4.05Zm0-4.3h9.09V13.39H4.05Zm0-4.29h9.09V9.09H4.05Z"/></g></g></svg>