<svg xmlns="http://www.w3.org/2000/svg" viewBox="0 0 36.88 36.88"><defs><style>.cls-1{opacity:0.9;}.cls-2{fill:#fff;}</style></defs><title>Asset 62</title><g id="Layer_2" data-name="Layer 2"><g id="Layer_1-2" data-name="Layer 1"><g class="cls-1"><path class="cls-2" d="M18.44,0A18.44,18.44,0,1,0,36.88,18.44,18.46,18.46,0,0,0,18.44,0Zm0,8.48a6.23,6.23,0,0,1,6.06,6.33,6.22,6.22,0,0,1-6.06,6.32,6.22,6.22,0,0,1-6.06-6.32A6.23,6.23,0,0,1,18.44,8.48Zm0,26.3A16.17,16.17,0,0,1,7.06,30.14c3.11-4.16,7.17-6.43,11.38-6.43S26.71,26,29.82,30.14A16.15,16.15,0,0,1,18.44,34.78Z"/></g></g></g></svg>