<svg xmlns="http://www.w3.org/2000/svg" viewBox="0 0 26.89 28.74"><defs><style>.cls-1{opacity:0.5;}.cls-2{fill:#212121;fill-rule:evenodd;}</style></defs><title>Asset 54</title><g id="Layer_2" data-name="Layer 2"><g id="Layer_1-2" data-name="Layer 1"><g class="cls-1"><path class="cls-2" d="M13.45,0A.44.44,0,0,0,13,.46h0v6L1.12,12.94a.46.46,0,0,0-.24.39v1.49a.45.45,0,0,0,.45.45H2.68v1.35a.45.45,0,0,0,.45.45h.45v7.18H3.13a.45.45,0,0,0-.45.45V26H2.37a.46.46,0,0,0-.46.45.45.45,0,0,0,.45.45H24.55A.44.44,0,0,0,25,26.5a.45.45,0,0,0-.44-.46h-.33V24.7a.45.45,0,0,0-.45-.45h-.44V17.07h.44a.45.45,0,0,0,.45-.45V15.27h1.35a.45.45,0,0,0,.45-.45V13.33a.42.42,0,0,0-.24-.39L13.91,6.47V5.39H15.7v.45a.45.45,0,0,0,.45.45h4.94a.45.45,0,0,0,.45-.45.46.46,0,0,0-.09-.27L20.3,4.05l1.15-1.53a.45.45,0,0,0-.09-.63.44.44,0,0,0-.27-.09H18V1.35A.45.45,0,0,0,17.5.9H13.91V.46A.46.46,0,0,0,13.46,0Zm.46,1.8h3.14V3.6a.44.44,0,0,0,.44.45A.45.45,0,0,0,18,3.61h0V2.7h2.24l-.81,1.08a.45.45,0,0,0,0,.54l.81,1.07H16.6V5a.49.49,0,0,0-.1-.37l0,0,0,0a.47.47,0,0,0-.36-.1H13.91V1.81Zm-.45,5.45L25.13,13.6v.77H1.78V13.6Zm0,1.73a2.25,2.25,0,1,0,2.24,2.25A2.26,2.26,0,0,0,13.46,9Zm0,.9a1.35,1.35,0,1,1-1.35,1.35A1.34,1.34,0,0,1,13.46,9.88ZM3.58,15.27H7.17v.9H3.58Zm4.49,0h2.69v1.35a.45.45,0,0,0,.45.45h.45v7.18h-.45a.45.45,0,0,0-.45.45V26H8.07V24.7a.45.45,0,0,0-.45-.45H7.17V17.07h.45a.45.45,0,0,0,.45-.45Zm3.59,0h3.59v.9H11.66Zm4.49,0h2.69v1.35a.45.45,0,0,0,.45.45h.45v7.18h-.45a.45.45,0,0,0-.45.45V26H16.15V24.7a.45.45,0,0,0-.45-.45h-.45V17.07h.45a.45.45,0,0,0,.45-.45Zm3.59,0h3.59v.9H19.74ZM4.47,17.07h1.8v7.18H4.47Zm8.09,0h1.79v7.18H12.56Zm8.08,0h1.8v7.18h-1.8ZM3.58,25.15H7.17V26H3.58Zm8.08,0h3.59V26H11.66Zm8.08,0h3.59V26H19.74ZM.43,27.84a.45.45,0,1,0,0,.9h26a.45.45,0,0,0,.45-.45.43.43,0,0,0-.44-.45H.43Z"/></g></g></g></svg>