<svg xmlns="http://www.w3.org/2000/svg" viewBox="0 0 27.95 21.66"><defs><style>.cls-1,.cls-2{fill:#515151;opacity:0.7;}.cls-2{stroke:#fff;stroke-miterlimit:10;stroke-width:0.25px;}</style></defs><title>Asset 52</title><g id="Layer_2" data-name="Layer 2"><g id="Layer_1-2" data-name="Layer 1"><path class="cls-1" d="M0,0V16.77H28V0H0ZM1.4,1.4H26.55v14H1.4ZM5.24,18.16a1.75,1.75,0,0,0-1.59,1.05H2.1a.7.7,0,0,0,0,1.4H3.65a1.73,1.73,0,0,0,3.18,0h19a.7.7,0,1,0,0-1.4h-19A1.75,1.75,0,0,0,5.24,18.16Z"/><path class="cls-1" d="M11,14.34h5.66a2,2,0,0,0,2-2V9.17a.46.46,0,0,0-.47-.47.46.46,0,0,0-.47.47V12.3a1.1,1.1,0,0,1-1.1,1.1H11a1.09,1.09,0,0,1-1.1-1.1V6.64A1.09,1.09,0,0,1,11,5.54H16.1a.47.47,0,1,0,0-.94H11a2,2,0,0,0-2,2V12.3A2,2,0,0,0,11,14.34Z"/><path class="cls-2" d="M18,5.36,13.57,9.81,12,8.11a.49.49,0,0,0-.68,0,.51.51,0,0,0,0,.68h0l1.91,2.06a.43.43,0,0,0,.33.15h0a.4.4,0,0,0,.33-.14L18.67,6a.5.5,0,0,0,0-.68A.44.44,0,0,0,18,5.36Z"/></g></g></svg>