<svg xmlns="http://www.w3.org/2000/svg" xmlns:xlink="http://www.w3.org/1999/xlink" viewBox="0 0 24.82 19.93"><defs><style>.cls-1{opacity:0.9;isolation:isolate;fill:url(#linear-gradient);}</style><linearGradient id="linear-gradient" y1="9.96" x2="24.82" y2="9.96" gradientUnits="userSpaceOnUse"><stop offset="0" stop-color="#774fe5"/><stop offset="1" stop-color="#692fdc"/></linearGradient></defs><title>Asset 49</title><g id="Layer_2" data-name="Layer 2"><g id="Layer_1-2" data-name="Layer 1"><path class="cls-1" d="M24.76,2.16A2.75,2.75,0,0,0,22.09,0a2.69,2.69,0,0,0-.57.06,2.72,2.72,0,0,0-.91,5L17.3,11.74l-.39,0a2.86,2.86,0,0,0-.58.06,2.62,2.62,0,0,0-.86.36L9.93,7a2.71,2.71,0,0,0,.36-2,2.73,2.73,0,1,0-4.2,2.84l-3,6.68a2,2,0,0,0-.35,0,2.78,2.78,0,0,0-.58.06A2.73,2.73,0,0,0,.44,15.71a2.7,2.7,0,0,0-.38,2.05,2.75,2.75,0,0,0,2.67,2.17,2.3,2.3,0,0,0,.58-.07A2.72,2.72,0,0,0,5,18.68a2.72,2.72,0,0,0-.7-3.7l3-6.72.28,0a2.76,2.76,0,0,0,.57-.06A2.73,2.73,0,0,0,9,7.93l5.58,5.15a2.73,2.73,0,0,0,2.36,4.1,2.78,2.78,0,0,0,.58-.06,2.74,2.74,0,0,0,2.1-3.25,2.7,2.7,0,0,0-1-1.61l3.34-6.8h.22a2.73,2.73,0,0,0,2.67-3.31ZM3.91,18a1.39,1.39,0,0,1-.88.61,1.53,1.53,0,0,1-.3,0,1.41,1.41,0,0,1-1.37-1.11,1.42,1.42,0,0,1,1.08-1.67l.3,0A1.41,1.41,0,0,1,4.11,16.9,1.37,1.37,0,0,1,3.91,18Zm4-11A1.43,1.43,0,0,1,6.25,5.84,1.41,1.41,0,0,1,7.33,4.17l.29,0A1.42,1.42,0,0,1,9,5.25a1.46,1.46,0,0,1-.2,1.06A1.42,1.42,0,0,1,7.92,6.92Zm10.16,8.29a1.39,1.39,0,0,1-.88.61,1.43,1.43,0,0,1-1.67-1.08,1.37,1.37,0,0,1,.2-1.06,1.42,1.42,0,0,1,.88-.61l.3,0a1.41,1.41,0,0,1,1.37,1.11A1.37,1.37,0,0,1,18.08,15.21Zm4.3-11.1A1.43,1.43,0,0,1,20.71,3a1.41,1.41,0,0,1,1.08-1.67,1.53,1.53,0,0,1,.3,0,1.41,1.41,0,0,1,.29,2.78Z"/></g></g></svg>