<svg xmlns="http://www.w3.org/2000/svg" viewBox="0 0 20.79 20.79"><defs><style>.cls-1{fill:#515151;opacity:0.7;}</style></defs><title>Asset 50</title><g id="Layer_2" data-name="Layer 2"><g id="Layer_1-2" data-name="Layer 1"><path class="cls-1" d="M11.59,20.79H9.2a1.53,1.53,0,0,1-1.51-1.27l-.22-1.28c-.19-.07-.37-.15-.56-.24l-1,.75a1.56,1.56,0,0,1-2-.16L2.2,16.9a1.52,1.52,0,0,1-.16-2l.75-1q-.13-.29-.24-.57L1.28,13.1A1.53,1.53,0,0,1,0,11.59V9.2A1.53,1.53,0,0,1,1.28,7.69l1.27-.21a5.72,5.72,0,0,1,.24-.57L2,5.86a1.52,1.52,0,0,1,.16-2L3.89,2.2a1.56,1.56,0,0,1,2-.16l1,.75q.28-.13.57-.24l.21-1.27A1.53,1.53,0,0,1,9.2,0h2.39A1.53,1.53,0,0,1,13.1,1.28l.22,1.27.55.23L14.93,2a1.56,1.56,0,0,1,2,.16l1.69,1.69a1.53,1.53,0,0,1,.17,2L18,6.92c.08.18.16.36.23.55l1.27.22A1.53,1.53,0,0,1,20.79,9.2v2.39a1.53,1.53,0,0,1-1.27,1.51l-1.28.22c-.07.19-.15.37-.23.55l.75,1.06a1.53,1.53,0,0,1-.17,2L16.9,18.59a1.57,1.57,0,0,1-2,.17L13.87,18l-.55.23-.22,1.27A1.53,1.53,0,0,1,11.59,20.79Zm-4.8-4.38.37.2a7.76,7.76,0,0,0,1.12.46l.4.13L9,19.28a.15.15,0,0,0,.16.14h2.39a.15.15,0,0,0,.16-.14l.36-2.08.4-.13a6.33,6.33,0,0,0,1.11-.46l.37-.19,1.73,1.22a.14.14,0,0,0,.1,0,.16.16,0,0,0,.12-.05l1.68-1.68a.17.17,0,0,0,0-.22L16.42,14l.19-.37a6.33,6.33,0,0,0,.46-1.11l.13-.4,2.08-.36a.15.15,0,0,0,.14-.16V9.2A.15.15,0,0,0,19.28,9L17.2,8.68l-.13-.4a6.33,6.33,0,0,0-.46-1.11l-.19-.37,1.22-1.73a.17.17,0,0,0,0-.22L15.94,3.17a.16.16,0,0,0-.12,0,.14.14,0,0,0-.1,0L14,4.37l-.37-.19a6.13,6.13,0,0,0-1.12-.46l-.39-.13-.36-2.08a.15.15,0,0,0-.16-.14H9.2A.16.16,0,0,0,9,1.51L8.69,3.59l-.4.13a6.53,6.53,0,0,0-1.13.46l-.37.19L5.07,3.15a.14.14,0,0,0-.1,0,.16.16,0,0,0-.12,0L3.17,4.85a.17.17,0,0,0,0,.22L4.38,6.79l-.2.37a7.43,7.43,0,0,0-.46,1.13l-.13.39L1.51,9a.16.16,0,0,0-.14.16v2.39a.16.16,0,0,0,.14.16l2.08.35.13.4a7.43,7.43,0,0,0,.46,1.13l.2.37L3.15,15.72a.17.17,0,0,0,0,.22l1.68,1.68a.16.16,0,0,0,.12.05.13.13,0,0,0,.1,0Zm3.61-1.75a4.27,4.27,0,1,1,4.26-4.26A4.27,4.27,0,0,1,10.4,14.66Zm0-7.16a2.9,2.9,0,1,0,2.89,2.9A2.9,2.9,0,0,0,10.4,7.5Z"/></g></g></svg>