<svg xmlns="http://www.w3.org/2000/svg" viewBox="0 0 20.32 26.7"><defs><style>.cls-1{fill:#212121;opacity:0.4;}</style></defs><title>Asset 55</title><g id="Layer_2" data-name="Layer 2"><g id="Layer_1-2" data-name="Layer 1"><path class="cls-1" d="M6.22,5.09,9.68,1.63V18.27a.48.48,0,0,0,.48.48.49.49,0,0,0,.48-.48V1.63L14.1,5.09a.44.44,0,0,0,.34.14.43.43,0,0,0,.33-.14.47.47,0,0,0,0-.67L10.5.14a.48.48,0,0,0-.68,0L5.54,4.42a.48.48,0,0,0,0,.67A.48.48,0,0,0,6.22,5.09ZM18.56,8.9H13.31a.48.48,0,1,0,0,.95h5.25a.8.8,0,0,1,.8.8V25a.79.79,0,0,1-.8.79H1.76A.79.79,0,0,1,1,25V10.65a.8.8,0,0,1,.8-.8H7A.48.48,0,1,0,7,8.9H1.76A1.75,1.75,0,0,0,0,10.65V25A1.76,1.76,0,0,0,1.76,26.7h16.8A1.76,1.76,0,0,0,20.32,25V10.65A1.75,1.75,0,0,0,18.56,8.9Z"/></g></g></svg>