<svg xmlns="http://www.w3.org/2000/svg" xmlns:xlink="http://www.w3.org/1999/xlink" viewBox="0 0 163.11 120.03"><defs><style>.cls-1{opacity:0.9;}.cls-2,.cls-6,.cls-8{fill:#7f41fa;}.cls-12,.cls-2,.cls-4{opacity:0.1;}.cls-2,.cls-4,.cls-8,.cls-9{isolation:isolate;}.cls-3{fill:#d0d2d5;}.cls-5{fill:#444053;}.cls-7{fill:#fff;}.cls-8{opacity:0.3;}.cls-13,.cls-9{fill:#3f3d56;}.cls-9{opacity:0.2;}.cls-10{fill:#ee8e9e;}.cls-11{fill:#454b69;}.cls-14{fill:url(#linear-gradient);}.cls-15{fill:#a26565;}.cls-16{fill:#efb7b9;}</style><linearGradient id="linear-gradient" x1="76.38" y1="-12106.58" x2="76.38" y2="-12047.4" gradientTransform="matrix(1, 0, 0, -1, -35, -11987.8)" gradientUnits="userSpaceOnUse"><stop offset="0" stop-color="gray" stop-opacity="0.25"/><stop offset="0.54" stop-color="gray" stop-opacity="0.12"/><stop offset="1" stop-color="gray" stop-opacity="0.1"/></linearGradient></defs><title>Asset 45</title><g id="Layer_2" data-name="Layer 2"><g id="Layer_1-2" data-name="Layer 1"><g class="cls-1"><path class="cls-2" d="M94.77,18c-10.46-.36-20.42-3.74-29.93-7.43S45.91,2.78,35.71.82C29.14-.44,21.63-.61,16.35,2.91c-5.1,3.38-6.74,9.23-7.62,14.65-.67,4.09-1.06,8.38.76,12.2,1.27,2.66,3.52,4.89,5.07,7.43C20,46,16.15,56.93,10.28,65.56c-2.74,4-5.93,7.92-8,12.23S-.87,87,1,91.43s6.22,7.64,11,9.94c9.64,4.68,21,6,32.09,6.77,24.53,1.68,49.19,1,73.79.23,9.1-.27,18.24-.54,27.2-2,5-.78,10.1-2,13.71-5a11.51,11.51,0,0,0,2.65-15c-5.15-8-19.39-10-23-18.56-2-4.72,0-10,2.93-14.36,6.18-9.4,16.53-17.65,17.08-28.39.37-7.38-4.61-14.77-12.3-18.26C138,3.16,126.85,3.63,120.9,9.68,114.77,15.92,104,18.32,94.77,18Z"/><polygon class="cls-3" points="95.87 109.11 67.72 108.75 67.81 108.03 69.17 96.12 93.89 96.12 95.71 108.03 95.84 108.93 95.87 109.11"/><polygon class="cls-4" points="95.84 108.93 81.8 108.93 67.72 108.75 67.81 108.03 95.71 108.03 95.84 108.93"/><rect class="cls-3" x="63.03" y="108.21" width="37.35" height="0.9"/><path class="cls-5" d="M136,24.59a2.35,2.35,0,0,0-2.34-2.36H29.37A2.35,2.35,0,0,0,27,24.59h0V87.82H136Z"/><path class="cls-3" d="M27,87.19v7.4a2.33,2.33,0,0,0,2.33,2.34H133.68A2.34,2.34,0,0,0,136,94.59v-7.4Z"/><rect class="cls-2" x="31.55" y="26.2" width="100.5" height="56.84"/><path class="cls-6" d="M82.07,94.12A2.45,2.45,0,0,0,84,93.19h0a2.68,2.68,0,0,0,.18-.28l-1.33-.22h1.44a2.44,2.44,0,0,0,0-1.93l-1.94,1,1.79-1.31A2.44,2.44,0,0,0,80,92.92l.18.28h0A2.47,2.47,0,0,0,82.07,94.12Z"/><polygon class="cls-4" points="84.5 96.93 95.73 108.21 94.01 96.93 84.5 96.93"/><rect class="cls-7" x="34.5" y="36.46" width="65.97" height="39.55" rx="0.38"/><rect class="cls-7" x="31.61" y="26.21" width="100.47" height="3.32"/><rect class="cls-6" x="32.04" y="26.78" width="2.89" height="2.02" rx="0.11"/><rect class="cls-8" x="66.4" y="26.78" width="30.31" height="2.02" rx="0.08"/><path class="cls-5" d="M95.81,28h-.07l0,0a.63.63,0,0,0,.15-.39.62.62,0,0,0-.61-.6.61.61,0,0,0-.59.61.6.6,0,0,0,.6.59.58.58,0,0,0,.39-.15l0,0v.07l.46.46.15-.14Zm-.55,0a.41.41,0,0,1-.42-.41.42.42,0,0,1,.42-.42.41.41,0,0,1,.41.41h0a.41.41,0,0,1-.41.41Z"/><circle class="cls-6" cx="130.63" cy="27.79" r="1.01"/><rect class="cls-7" x="105.23" y="33.14" width="9.38" height="6.35" rx="0.35"/><rect class="cls-7" x="117.07" y="33.14" width="12.13" height="1.01" rx="0.09"/><rect class="cls-7" x="117.07" y="35.3" width="12.13" height="1.01" rx="0.09"/><rect class="cls-7" x="117.07" y="37.47" width="12.13" height="1.01" rx="0.09"/><rect class="cls-7" x="105.23" y="43.1" width="9.38" height="6.35" rx="0.35"/><rect class="cls-7" x="117.07" y="43.1" width="12.13" height="1.01" rx="0.09"/><rect class="cls-7" x="117.07" y="45.26" width="12.13" height="1.01" rx="0.09"/><rect class="cls-7" x="117.07" y="47.43" width="12.13" height="1.01" rx="0.1"/><rect class="cls-7" x="105.23" y="53.06" width="9.38" height="6.35" rx="0.35"/><rect class="cls-7" x="117.07" y="53.06" width="12.13" height="1.01" rx="0.1"/><rect class="cls-7" x="117.07" y="55.22" width="12.13" height="1.01" rx="0.1"/><rect class="cls-7" x="117.07" y="57.39" width="12.13" height="1.01" rx="0.1"/><rect class="cls-7" x="105.23" y="63.02" width="9.38" height="6.35" rx="0.35"/><rect class="cls-7" x="117.07" y="63.02" width="12.13" height="1.01" rx="0.1"/><rect class="cls-7" x="117.07" y="65.18" width="12.13" height="1.01" rx="0.1"/><rect class="cls-7" x="117.07" y="67.35" width="12.13" height="1.01" rx="0.1"/><rect class="cls-7" x="105.23" y="72.98" width="9.38" height="6.35" rx="0.35"/><rect class="cls-7" x="117.07" y="72.98" width="12.13" height="1.01" rx="0.1"/><rect class="cls-7" x="117.07" y="75.14" width="12.13" height="1.01" rx="0.1"/><rect class="cls-7" x="117.07" y="77.31" width="12.13" height="1.01" rx="0.1"/><rect class="cls-2" x="44.01" y="46.94" width="14.84" height="0.77"/><rect class="cls-2" x="45.33" y="42.87" width="1.43" height="4.07"/><rect class="cls-2" x="47.42" y="42.87" width="1.43" height="4.07"/><rect class="cls-2" x="49.51" y="42.87" width="1.43" height="4.07"/><rect class="cls-2" x="51.6" y="42.87" width="1.43" height="4.07"/><rect class="cls-2" x="53.69" y="42.87" width="1.43" height="4.07"/><rect class="cls-2" x="55.78" y="42.87" width="1.43" height="4.07"/><rect class="cls-2" x="45.33" y="43.64" width="1.43" height="0.44"/><rect class="cls-2" x="47.42" y="43.64" width="1.43" height="0.44"/><rect class="cls-2" x="49.51" y="43.64" width="1.43" height="0.44"/><rect class="cls-2" x="51.6" y="43.64" width="1.43" height="0.44"/><rect class="cls-2" x="53.69" y="43.64" width="1.43" height="0.44"/><rect class="cls-2" x="55.78" y="43.64" width="1.43" height="0.44"/><rect class="cls-2" x="45.33" y="45.62" width="1.43" height="0.44"/><rect class="cls-2" x="47.42" y="45.62" width="1.43" height="0.44"/><rect class="cls-2" x="49.51" y="45.62" width="1.43" height="0.44"/><rect class="cls-2" x="51.6" y="45.62" width="1.43" height="0.44"/><rect class="cls-2" x="53.69" y="45.62" width="1.43" height="0.44"/><rect class="cls-2" x="55.78" y="45.62" width="1.43" height="0.44"/><rect class="cls-2" x="76.56" y="48.92" width="14.84" height="0.77"/><rect class="cls-2" x="77.88" y="44.85" width="1.43" height="4.07"/><rect class="cls-2" x="79.97" y="44.85" width="1.43" height="4.07"/><rect class="cls-2" x="82.05" y="44.85" width="1.43" height="4.07"/><rect class="cls-2" x="84.14" y="44.85" width="1.43" height="4.07"/><rect class="cls-2" x="86.23" y="44.85" width="1.43" height="4.07"/><rect class="cls-2" x="88.32" y="44.85" width="1.43" height="4.07"/><rect class="cls-2" x="77.88" y="45.62" width="1.43" height="0.44"/><rect class="cls-2" x="79.97" y="45.62" width="1.43" height="0.44"/><rect class="cls-2" x="82.05" y="45.62" width="1.43" height="0.44"/><rect class="cls-2" x="84.14" y="45.62" width="1.43" height="0.44"/><rect class="cls-2" x="86.23" y="45.62" width="1.43" height="0.44"/><rect class="cls-2" x="88.32" y="45.62" width="1.43" height="0.44"/><rect class="cls-2" x="77.88" y="47.6" width="1.43" height="0.44"/><rect class="cls-2" x="79.97" y="47.6" width="1.43" height="0.44"/><rect class="cls-2" x="82.05" y="47.6" width="1.43" height="0.44"/><rect class="cls-2" x="84.14" y="47.6" width="1.43" height="0.44"/><rect class="cls-2" x="86.23" y="47.6" width="1.43" height="0.44"/><rect class="cls-2" x="88.32" y="47.6" width="1.43" height="0.44"/><rect class="cls-2" x="76.56" y="54.52" width="14.84" height="0.77"/><rect class="cls-2" x="77.88" y="50.45" width="1.43" height="4.07"/><rect class="cls-2" x="79.97" y="50.45" width="1.43" height="4.07"/><rect class="cls-2" x="82.05" y="50.45" width="1.43" height="4.07"/><rect class="cls-2" x="84.14" y="50.45" width="1.43" height="4.07"/><rect class="cls-2" x="86.23" y="50.45" width="1.43" height="4.07"/><rect class="cls-2" x="88.32" y="50.45" width="1.43" height="4.07"/><rect class="cls-2" x="77.88" y="51.22" width="1.43" height="0.44"/><rect class="cls-2" x="79.97" y="51.22" width="1.43" height="0.44"/><rect class="cls-2" x="82.05" y="51.22" width="1.43" height="0.44"/><rect class="cls-2" x="84.14" y="51.22" width="1.43" height="0.44"/><rect class="cls-2" x="86.23" y="51.22" width="1.43" height="0.44"/><rect class="cls-2" x="88.32" y="51.22" width="1.43" height="0.44"/><rect class="cls-2" x="77.88" y="53.2" width="1.43" height="0.44"/><rect class="cls-2" x="79.97" y="53.2" width="1.43" height="0.44"/><rect class="cls-2" x="82.05" y="53.2" width="1.43" height="0.44"/><rect class="cls-2" x="84.14" y="53.2" width="1.43" height="0.44"/><rect class="cls-2" x="86.23" y="53.2" width="1.43" height="0.44"/><rect class="cls-2" x="88.32" y="53.2" width="1.43" height="0.44"/><path class="cls-2" d="M53.12,55.64a4.4,4.4,0,0,1-.3-.45L55,54.84l-2.31,0a4,4,0,0,1-.07-3.09l3.1,1.61-2.86-2.11a3.9,3.9,0,0,1,6.77,3.86,2.93,2.93,0,0,1-.34.5,4,4,0,0,1,.44.71l-2.77,1.45,3-1a3.9,3.9,0,0,1-.63,3.65,3.9,3.9,0,1,1-6.12,0,3.9,3.9,0,0,1,0-4.82Z"/><path class="cls-2" d="M60.07,58a3.89,3.89,0,0,1-.83,2.41,3.9,3.9,0,1,1-6.12,0C52.6,59.79,60.07,57.61,60.07,58Z"/><path class="cls-9" d="M56.8,67.79l0,0H55.5l0,0a1.22,1.22,0,0,1-.17-.65,1.24,1.24,0,0,1,.08-.46h0l.27,0a4.71,4.71,0,0,0,.92,0l.27,0h0a1.19,1.19,0,0,1,.08.45A1.22,1.22,0,0,1,56.8,67.79Z"/><path class="cls-2" d="M52.05,67.82H44.69a.56.56,0,0,1,0-.12,3.91,3.91,0,0,1,.08-2.55,3.89,3.89,0,0,1-1.42-4.6,4.78,4.78,0,0,1-.42-.34l1.94-1-2.21.7a3.9,3.9,0,0,1-1-2.92l3.44.62-3.35-1.17a3.9,3.9,0,1,1,7.61,1.68,3.09,3.09,0,0,1-.18.59,4.22,4.22,0,0,1,.64.55l-2.23,2.2,2.54-1.82a3.91,3.91,0,0,1,.48,3.68A3.89,3.89,0,0,1,52.05,67.82Z"/><path class="cls-2" d="M52.05,67.82H44.69a.56.56,0,0,1,0-.12,3.91,3.91,0,0,1,.08-2.55c-.69-.48,5.81-4.77,5.94-4.36a3.85,3.85,0,0,1-.09,2.55A3.9,3.9,0,0,1,52.05,67.82Z"/><path class="cls-2" d="M85.36,62.55a3.87,3.87,0,0,1-2,1.64,4.72,4.72,0,0,1,0,.84l-3.12-.19,3,.66a3.86,3.86,0,0,1-.46,1.18,3.91,3.91,0,0,1-1,1.14H77.6v.11H73.27l0-.11a3.87,3.87,0,0,1,2.37-2.64A3.91,3.91,0,0,1,78.15,61a3.27,3.27,0,0,1,0-.54l2,.8-2-1.17a3.89,3.89,0,0,1,1.52-2.68l1.84,3-1.38-3.27a3.9,3.9,0,0,1,5.24,5.4Z"/><path class="cls-2" d="M82.89,66.68a3.79,3.79,0,0,1-1,1.14H77.6v.12H73.27l0-.12a3.89,3.89,0,0,1,2.37-2.64c0-.29.81-.24,1.93-.06C79.79,65.49,83,66.44,82.89,66.68Z"/><path class="cls-10" d="M64.48,56.29s.54,2.89-.66,3.83,1,6.59,4.65,5.93,5.11-5.4,5.11-5.4a3.21,3.21,0,0,1-2.29-4.58Z"/><path class="cls-4" d="M64.48,56.29s.54,2.89-.66,3.83,1,6.59,4.65,5.93,5.11-5.4,5.11-5.4a3.21,3.21,0,0,1-2.29-4.58Z"/><circle class="cls-10" cx="67.7" cy="52.38" r="6.03"/><path class="cls-6" d="M77.6,63.84v4.1H57.7V64a2.54,2.54,0,0,1,1.54-2.33l.57-.24c1.45-.62,3.2-1.38,3.77-1.7a.78.78,0,0,0,.18-.11c.31-.31.25.09.25.09A2,2,0,0,0,64,60c0,.92.09,4.54,4.34,4.24s4.33-3.09,4.29-3.92a1.64,1.64,0,0,0,0-.22,4.84,4.84,0,0,1,.84.27,16.43,16.43,0,0,1,2.49,1.08,3.77,3.77,0,0,0,.38.23,2.36,2.36,0,0,1,.44.32A2.5,2.5,0,0,1,77.6,63.84Z"/><path class="cls-4" d="M73.45,60.33C73.1,62,72,65,68,65.08c-4.23.08-4.48-4.12-4.45-5.32a.78.78,0,0,0,.18-.11c.31-.31.25.09.25.09s-.53,4.81,4.33,4.46,4.27-4.14,4.27-4.14A4.82,4.82,0,0,1,73.45,60.33Z"/><path class="cls-11" d="M60.56,52.68a1,1,0,0,1,1.09.4,2,2,0,0,1,.28,1c.26.06.41-.24.43-.46a12.51,12.51,0,0,1,.41-2.72,3.27,3.27,0,0,1,2-2.07,2.24,2.24,0,0,1,1.09-.1c.22,0,.42.11.64.14.75.13,1.56-.23,2.27,0a1.8,1.8,0,0,1,.93.87,1.72,1.72,0,0,0,.36.53,2.49,2.49,0,0,0,1.19.42,1.52,1.52,0,0,1,1.08.56c.17.3,0,.64,0,1a2.34,2.34,0,0,0,.24,1.49c.08.15.24.32.44.27a.35.35,0,0,0,.2-.16c.49-.69.48-1.59,1.1-2.21.2-.21.47-.37.67-.58a1.31,1.31,0,0,0,.35-1.19,3.81,3.81,0,0,0-.8-1.28,5,5,0,0,1-.85-1.78.3.3,0,0,1,0-.23.49.49,0,0,1,.22-.18.84.84,0,0,0,.28-1.06,1.76,1.76,0,0,0-1-.79,6.91,6.91,0,0,0-1.35-.29.73.73,0,0,1-.75-.37c0-.11,0-.22-.08-.33a.82.82,0,0,0-.58-.41,1.67,1.67,0,0,0-.77.06,1.21,1.21,0,0,1-.87.06c-.13-.07-.2-.21-.35-.27s-.58.12-.79.33a2,2,0,0,1-.71.48,1.07,1.07,0,0,1-.89-.06,2.59,2.59,0,0,1-.45-.49,1.72,1.72,0,0,0-1.08-.43A3.78,3.78,0,0,0,63.3,43a7.28,7.28,0,0,0-2.13.89,2.25,2.25,0,0,0-.82.77,1.76,1.76,0,0,0-.19.78,2.84,2.84,0,0,0,1,2.35,1.38,1.38,0,0,0-.7,1,5.89,5.89,0,0,0-.28,2,4.52,4.52,0,0,1,.08,1,2.08,2.08,0,0,0-.07.5A.47.47,0,0,0,60.56,52.68Z"/><g class="cls-12"><path d="M75.24,49.62A1.66,1.66,0,0,1,75,50c-.2.21-.47.37-.68.57-.61.62-.6,1.53-1.09,2.22A.42.42,0,0,1,73,53c-.19,0-.35-.12-.43-.27a2.39,2.39,0,0,1-.22-.58l0,.15a2.41,2.41,0,0,0,.25,1.49c.08.15.24.32.43.27a.37.37,0,0,0,.21-.16c.49-.69.48-1.59,1.09-2.21.21-.21.48-.37.68-.58a1.31,1.31,0,0,0,.35-1.19A1.34,1.34,0,0,0,75.24,49.62Z"/><path d="M73.89,45.35a.63.63,0,0,0-.22.18.31.31,0,0,0,0,.23,5.67,5.67,0,0,0,.22.66h0a.82.82,0,0,0,.28-1.06,1,1,0,0,0-.1-.17A.69.69,0,0,1,73.89,45.35Z"/><path d="M61.16,46.69A2.65,2.65,0,0,1,60.22,45a2.44,2.44,0,0,0,0,.39,3,3,0,0,0,.48,1.78A1,1,0,0,1,61.16,46.69Z"/><path d="M72.33,51.2a1.47,1.47,0,0,0,0-1,1.56,1.56,0,0,0-1.08-.56,2.39,2.39,0,0,1-1.19-.42,1.67,1.67,0,0,1-.36-.52,1.86,1.86,0,0,0-.93-.88c-.71-.24-1.52.11-2.27,0-.22,0-.42-.11-.64-.15a2.37,2.37,0,0,0-1.09.11,3.27,3.27,0,0,0-2,2.07,12.42,12.42,0,0,0-.41,2.72c0,.22-.17.52-.43.46a2,2,0,0,0-.28-1,1,1,0,0,0-1.09-.4.6.6,0,0,1-.3-.19,1.28,1.28,0,0,1,0,.39,2.87,2.87,0,0,0-.07.5.48.48,0,0,0,.38.37,1,1,0,0,1,1.09.39,2,2,0,0,1,.28,1c.26.05.41-.24.43-.47a11.93,11.93,0,0,1,.41-2.72,3.24,3.24,0,0,1,2-2.06,2.26,2.26,0,0,1,1.09-.11c.22,0,.43.11.64.15.75.12,1.57-.24,2.27,0a1.86,1.86,0,0,1,.93.88,1.86,1.86,0,0,0,.36.52,2.46,2.46,0,0,0,1.2.42,1.56,1.56,0,0,1,1,.53A.17.17,0,0,1,72.33,51.2Z"/><path d="M60.25,50.75a2.68,2.68,0,0,0,0-.8,3.38,3.38,0,0,0,0,.84,1.66,1.66,0,0,0,0,.22C60.22,50.92,60.24,50.84,60.25,50.75Z"/></g><ellipse class="cls-6" cx="138.15" cy="109.49" rx="8.58" ry="1.65"/><ellipse class="cls-13" cx="138.01" cy="108.79" rx="1" ry="1.31"/><ellipse class="cls-13" cx="138.01" cy="107.19" rx="1" ry="1.31"/><ellipse class="cls-13" cx="138.01" cy="105.59" rx="1" ry="1.31"/><ellipse class="cls-13" cx="138.01" cy="103.99" rx="1" ry="1.31"/><ellipse class="cls-13" cx="138.01" cy="102.39" rx="1" ry="1.31"/><ellipse class="cls-13" cx="138.01" cy="100.8" rx="1" ry="1.31"/><ellipse class="cls-13" cx="138.01" cy="99.2" rx="1" ry="1.31"/><path class="cls-6" d="M141.75,88.25a5.14,5.14,0,0,0,.37-.54l-2.63-.44,2.84,0a4.8,4.8,0,0,0,.1-3.79l-3.81,2,3.51-2.58a4.79,4.79,0,1,0-8.29,4.79,4.58,4.58,0,0,0,.38.56,4.86,4.86,0,0,0-.54.87l3.41,1.77-3.64-1.22a4.8,4.8,0,0,0,.77,4.5,4.79,4.79,0,1,0,7.53,0,4.8,4.8,0,0,0,0-5.92Z"/><path class="cls-4" d="M133.2,91.21a4.78,4.78,0,0,0,1,3,4.79,4.79,0,1,0,7.53,0C142.39,93.36,133.2,90.68,133.2,91.21Z"/><ellipse class="cls-2" cx="41.86" cy="117" rx="14.29" ry="3.03"/><path class="cls-14" d="M46.65,116.65a3.42,3.42,0,0,0-.9-.12,2.83,2.83,0,0,1-1.66-.8,3.14,3.14,0,0,1-.66-1l.29.11a2.83,2.83,0,0,1,.28-2.11c.45-1.15.88-2.31,1.28-3.48a28.11,28.11,0,0,0,1.85-9.18c0-1.14-.2-2.21-.24-3.35,0-.84.09-1.68.09-2.53,0-.12,0-.23,0-.35A2.28,2.28,0,0,0,47.73,92a3.08,3.08,0,0,0-.08-.53,6.54,6.54,0,0,0-.2-.9c-.09-.32-.22-.62-.33-.92-.22-.6-.36-1.22-.55-1.82l.2.05a.31.31,0,0,1-.09-.18,4.75,4.75,0,0,1-.18-1.18l.13-.06a3.3,3.3,0,0,0-.06-1.17c.07-.62.17-1.24.24-1.86,0-.23,0-.52-.2-.57,0-.33-.06-.67-.08-1l-.18-3.49c-.06-1.17-.12-2.33-.14-3.5a10.19,10.19,0,0,0-.2-2.22,2.85,2.85,0,0,0-.1-1A2.08,2.08,0,0,0,44,70.15a3.87,3.87,0,0,0-.92-.93c.16-.38.37-.77.53-1.08a3.49,3.49,0,0,0,2.35-3.36,3.7,3.7,0,0,0-.4-1.67,1.52,1.52,0,0,0,.06-.2,1.59,1.59,0,0,0-.06-.94,2.41,2.41,0,0,0-.15-.33,1.13,1.13,0,0,0-.12-.21l-.07-.12L45,61.12l-.33-.4a4.81,4.81,0,0,0-.48-.42,2.14,2.14,0,0,0-.78-.36,2.63,2.63,0,0,0-.49,0h-.3l-.6,0h-.21a7.4,7.4,0,0,1-1-.22l-.17,0a.57.57,0,0,0-.18,0,3.87,3.87,0,0,0-.48,0h-.16a3.91,3.91,0,0,0-.48,0l-.15,0A4.65,4.65,0,0,0,38,60l-.14.07,0,0-.11.06h0l-.12.08h0a5.14,5.14,0,0,0-2,3.68,14.87,14.87,0,0,0,.48,4.87l.3,1.44c0,.07,0,.13,0,.19a3.2,3.2,0,0,0-.95,1.32,5.52,5.52,0,0,0-.27,2.29,3.62,3.62,0,0,0,0,.47c0,.3-.07.61-.09.91-.09,1.4.08,2.81,0,4.21A29.33,29.33,0,0,0,35,82.9a14.22,14.22,0,0,0,.58,2.8L36,87a.34.34,0,0,0,.09.18.28.28,0,0,0,.2,0,13.63,13.63,0,0,0-.59,1.66A4.74,4.74,0,0,0,35.47,90a6.22,6.22,0,0,0,.26,2l.69,2.9.48,2a21.7,21.7,0,0,1,.7,4.06,8.9,8.9,0,0,1-.15,2.06,18.39,18.39,0,0,0-.18,6.19,30,30,0,0,0,1.17,5.11c.12-.07.24-.12.36-.18l0,.1a9.34,9.34,0,0,0-.46.89,4.47,4.47,0,0,0-.25.6,6.45,6.45,0,0,0-.24,1.8,1,1,0,0,0,0,.35.72.72,0,0,0,.52.39,4.77,4.77,0,0,0,1.92,0s0,0,0,0a.72.72,0,0,0,.52.39,7.29,7.29,0,0,0,2.75-.07,20.08,20.08,0,0,0,2.71-.23,1.37,1.37,0,0,0,.38-.15,1.26,1.26,0,0,0,.47-.66.73.73,0,0,0,.06-.21A.74.74,0,0,0,46.65,116.65Zm-3.06-13.37a3.35,3.35,0,0,1-.29,1,19,19,0,0,0-1.48,4.64,20.42,20.42,0,0,0-.32,3.21,5.88,5.88,0,0,1-.32,2.34l.12,0a1.8,1.8,0,0,1-.11.2l0,0a3.13,3.13,0,0,1-.39-1.11s-.06,0-.16,0a30.2,30.2,0,0,1-.43-6.91,3.87,3.87,0,0,1,.12-.83c.07-.23.2-.45.29-.67a5.22,5.22,0,0,0,.29-1.18,16.88,16.88,0,0,0,.18-3.1,12.73,12.73,0,0,1,.38-2.93,13.61,13.61,0,0,0,.23-1.4v-.09a14,14,0,0,1,1.77,4.6A6.61,6.61,0,0,1,43.59,103.28ZM37.41,82.42l.05,0a2.86,2.86,0,0,1,.38.4.65.65,0,0,1,.13.23c0,.21-.14.39-.28.54l-.17.21c0-.47-.07-1-.1-1.42Z"/><path class="cls-6" d="M35.42,73.37l-.16,1.23c-.06.41-.11.83-.14,1.24-.09,1.39.08,2.79,0,4.18A28.72,28.72,0,0,0,35,83.23,14,14,0,0,0,35.64,86L36,87.3a.4.4,0,0,0,.1.18.34.34,0,0,0,.24,0l1.7-.15c-.11-.5-.23-1-.29-1.52s-.08-.8-.11-1.21c-.09-1.25-.19-2.5-.28-3.75L37.2,78.7a16.89,16.89,0,0,0-.4-2.84A5.73,5.73,0,0,0,35.42,73.37Z"/><path class="cls-4" d="M35.42,73.37l-.16,1.23c-.06.41-.11.83-.14,1.24-.09,1.39.08,2.79,0,4.18A28.72,28.72,0,0,0,35,83.23,14,14,0,0,0,35.64,86L36,87.3a.4.4,0,0,0,.1.18.34.34,0,0,0,.24,0l1.7-.15c-.11-.5-.23-1-.29-1.52s-.08-.8-.11-1.21c-.09-1.25-.19-2.5-.28-3.75L37.2,78.7a16.89,16.89,0,0,0-.4-2.84A5.73,5.73,0,0,0,35.42,73.37Z"/><path class="cls-15" d="M38.43,115.09a5.18,5.18,0,0,0-.26.6,6.73,6.73,0,0,0-.25,1.79,1,1,0,0,0,0,.34.76.76,0,0,0,.55.39,8.28,8.28,0,0,0,2.89-.07,22.2,22.2,0,0,0,2.84-.23,1.64,1.64,0,0,0,.39-.14,1.2,1.2,0,0,0,.5-.65.83.83,0,0,0,.06-.21.74.74,0,0,0-.55-.7,4.25,4.25,0,0,0-.94-.12,3,3,0,0,1-2.63-2.48,6.53,6.53,0,0,0-1.74.06c-.19.1-.3.36-.41.54S38.58,114.79,38.43,115.09Z"/><path class="cls-4" d="M38.43,115.09a5.18,5.18,0,0,0-.26.6,6.73,6.73,0,0,0-.25,1.79,1,1,0,0,0,0,.34.76.76,0,0,0,.55.39,8.28,8.28,0,0,0,2.89-.07,22.2,22.2,0,0,0,2.84-.23,1.64,1.64,0,0,0,.39-.14,1.2,1.2,0,0,0,.5-.65.83.83,0,0,0,.06-.21.74.74,0,0,0-.55-.7,4.25,4.25,0,0,0-.94-.12,3,3,0,0,1-2.63-2.48,6.53,6.53,0,0,0-1.74.06c-.19.1-.3.36-.41.54S38.58,114.79,38.43,115.09Z"/><path class="cls-15" d="M41,115.55a5.18,5.18,0,0,0-.26.6,6,6,0,0,0-.25,1.79.66.66,0,0,0,0,.34.74.74,0,0,0,.54.39A8.52,8.52,0,0,0,44,118.6a22,22,0,0,0,2.84-.24,1.12,1.12,0,0,0,.4-.14,1.25,1.25,0,0,0,.5-.65,1.6,1.6,0,0,0,0-.21.73.73,0,0,0-.54-.7,4.26,4.26,0,0,0-1-.12,3,3,0,0,1-2.63-2.48,6.47,6.47,0,0,0-1.73.06c-.19.1-.31.37-.42.54S41.16,115.25,41,115.55Z"/><path class="cls-11" d="M47.72,100.22a26.27,26.27,0,0,1-1.95,9.09c-.42,1.16-.86,2.31-1.34,3.45a2.7,2.7,0,0,0-.29,2.09,5.19,5.19,0,0,0-2.66-.37,5.43,5.43,0,0,0,.33-2.31,20.07,20.07,0,0,1,.34-3.18,17.36,17.36,0,0,1,1.56-4.6,3.76,3.76,0,0,0,.3-1,6.26,6.26,0,0,0-.13-2.24A13.27,13.27,0,0,0,42,96.62v.09a12.81,12.81,0,0,1-.23,1.38,11.61,11.61,0,0,0-.41,2.91,15.74,15.74,0,0,1-.19,3.07,4.7,4.7,0,0,1-.31,1.17c-.1.22-.23.43-.31.66a2.92,2.92,0,0,0-.12.83,27.6,27.6,0,0,0,.48,7,4.53,4.53,0,0,0-2.33.53,28.48,28.48,0,0,1-1.22-5.06,16.84,16.84,0,0,1,.18-6.13,7.85,7.85,0,0,0,.15-2A19.86,19.86,0,0,0,37,97l-.5-2c-.24-1-.48-1.92-.73-2.87a6.17,6.17,0,0,1-.27-2,4.69,4.69,0,0,1,.23-1,11.69,11.69,0,0,1,1.6-3.27,65.08,65.08,0,0,0,8.37-.32.54.54,0,0,1,.39.07.52.52,0,0,1,.16.36l1,5.91a15.1,15.1,0,0,1,.3,2.5c0,.84-.13,1.67-.1,2.51C47.5,98,47.72,99.09,47.72,100.22Z"/><path class="cls-4" d="M42,96.71a12.81,12.81,0,0,1-.23,1.38C41.17,97.05,40.52,96,40,95c-.14-.27-.28-.55-.41-.83l-.41-.84c-.08-.16-.16-.32-.23-.48a3.64,3.64,0,0,1-.26-.72c.21,0,.71.51.86.65.3.31.59.63.86,1a10.69,10.69,0,0,1,.91,1.19A5.71,5.71,0,0,1,42,96.71Z"/><path class="cls-16" d="M44.33,68s-1.55,2.46-1.26,3-4.86-.45-4.86-.45S41,68.06,40.72,67,44.33,68,44.33,68Z"/><circle class="cls-16" cx="42.96" cy="65.25" r="3.49"/><path class="cls-6" d="M44.38,70.58a3.47,3.47,0,0,0-1.47-1.18,5.46,5.46,0,0,0-1-.26l-1.39-.24a1.8,1.8,0,0,0-1,0,1.66,1.66,0,0,0-.43.32,5.66,5.66,0,0,1-1.56,1.2l-.51.19a2.94,2.94,0,0,0-1.47,1.59,5.39,5.39,0,0,0-.29,2.26,4.26,4.26,0,0,0,.08.8,6.34,6.34,0,0,0,.26.73A12.12,12.12,0,0,1,36,77.56c.36,1.38.66,2.78.9,4.19a1.63,1.63,0,0,0,.17.57,2.37,2.37,0,0,0,.48.47,3.09,3.09,0,0,1,.41.4.57.57,0,0,1,.13.21c0,.21-.15.39-.29.54a2.58,2.58,0,0,0-.65,1.13.46.46,0,0,0-.11.32.69.69,0,0,1,0,.25.66.66,0,0,1-.14.2.8.8,0,0,0-.14.62,9.82,9.82,0,0,0,3.42.8,8.11,8.11,0,0,1,.86,0c.21,0,.41.06.62.09a6.58,6.58,0,0,0,.89,0,12,12,0,0,0,4.58-.69,5.12,5.12,0,0,0-.34-2.2c-.28-1.15-.36-2.33-.57-3.5-.15-.79-.36-1.58-.49-2.38a5.93,5.93,0,0,1,.07-2.41c.2-.69.26-1.39.46-2.08A3.58,3.58,0,0,0,46.43,72,2.16,2.16,0,0,0,44.38,70.58Z"/><path class="cls-15" d="M46.1,63.4a2.1,2.1,0,0,0-.57-1.77,2.94,2.94,0,0,0-1.66-1.16,15.65,15.65,0,0,0-1.68,0c-.49,0-1-.21-1.46-.28a4.3,4.3,0,0,0-1.34.05,4.71,4.71,0,0,0-1.22.34,4.82,4.82,0,0,0-2.56,3.89,14.39,14.39,0,0,0,.5,4.83l.32,1.43a28,28,0,0,1,.75,4.52,9.53,9.53,0,0,1-.7,4.49,9.69,9.69,0,0,0,4.44-5c.22-.59.39-1.2.64-1.78s.49-1,.68-1.48a4.64,4.64,0,0,0,.3-1.8c0-.47-.08-.93-.07-1.39A1.91,1.91,0,0,1,42.92,67a4.1,4.1,0,0,1,1-.62,4.27,4.27,0,0,0,1.47-1.23,1.35,1.35,0,0,0,.3-.77C45.8,64,46,63.73,46.1,63.4Z"/><path class="cls-16" d="M46.1,89.63a9.76,9.76,0,0,0,0,1.08c.06.26.2.5.28.76a3.57,3.57,0,0,1,.12.92c0,.26,0,.58-.24.7s-.22,0-.33.1-.19.17-.13.27.16.08.26.1.19.12.14.2l-.08,0a.84.84,0,0,0-.27.13.25.25,0,0,0-.11.26.15.15,0,0,0,.19.12h0a.73.73,0,0,0-.07.29,1.32,1.32,0,0,0,1.13-.25,4,4,0,0,0,.43-.28,2.15,2.15,0,0,0,.85-1.84,4.89,4.89,0,0,0-.09-.53,6.77,6.77,0,0,0-.21-.89c-.1-.31-.23-.61-.35-.91-.25-.65-.41-1.33-.63-2a.34.34,0,0,0-.11-.17.45.45,0,0,0-.16,0,2.66,2.66,0,0,0-.75.07c-.15,0-.4.14-.46.29s0,.26.1.38A3.3,3.3,0,0,1,46.1,89.63Z"/><path class="cls-4" d="M45.86,72.09a.83.83,0,0,1,.19.26,6.37,6.37,0,0,1,.52,3c0,1.15.09,2.31.16,3.47l.19,3.46c0,.33,0,.66.08,1,.22.06.23.35.21.58-.16,1.41-.56,2.86-.15,4.22a.44.44,0,0,0,.1.19,1.11,1.11,0,0,0-.65,0c-.2,0-.4.12-.61.17a1.28,1.28,0,0,0-.74.29,15.08,15.08,0,0,1-.48-1.87,7.34,7.34,0,0,0-.36-1.7c-.1-.22-.22-.42-.34-.63A13.65,13.65,0,0,1,42.79,81a5.09,5.09,0,0,1-.09-1.74,7,7,0,0,0,.07-.8,5.85,5.85,0,0,0-.11-.84,5.59,5.59,0,0,1,.17-2.44,6.41,6.41,0,0,1,.86-2.13A2.91,2.91,0,0,1,45.86,72.09Z"/><path class="cls-6" d="M46,72a1.51,1.51,0,0,1,.18.26,6.5,6.5,0,0,1,.53,3c0,1.16.09,2.31.15,3.47l.19,3.46c0,.33,0,.66.08,1,.22.06.23.34.21.58-.16,1.41-.56,2.86-.15,4.22a.5.5,0,0,0,.1.19,1.11,1.11,0,0,0-.65,0c-.2,0-.4.12-.61.16a1.43,1.43,0,0,0-.74.29,15.08,15.08,0,0,1-.48-1.87,6.86,6.86,0,0,0-.36-1.7c-.1-.22-.21-.42-.33-.63a13.42,13.42,0,0,1-1.2-3.5,5.09,5.09,0,0,1-.09-1.74,3.68,3.68,0,0,0,0-1.65A5.71,5.71,0,0,1,43,75.07a6.65,6.65,0,0,1,.87-2.13A2.92,2.92,0,0,1,46,72Z"/><g class="cls-12"><path d="M45.53,61.63a2.94,2.94,0,0,0-1.66-1.16,15.65,15.65,0,0,0-1.68,0c-.49,0-1-.21-1.46-.28a4.3,4.3,0,0,0-1.34.05,4.71,4.71,0,0,0-1.22.34,3.56,3.56,0,0,0-.6.34,5,5,0,0,1,1.07-.29A4.65,4.65,0,0,1,40,60.55c.5.06,1,.24,1.47.28a13.43,13.43,0,0,1,1.68,0A3,3,0,0,1,44.79,62a2.09,2.09,0,0,1,.56,1.77,8.19,8.19,0,0,0-.35.94,1.38,1.38,0,0,1-.3.78,4.48,4.48,0,0,1-1.06,1l.33-.16a4.24,4.24,0,0,0,1.47-1.22,1.38,1.38,0,0,0,.3-.78c.06-.34.27-.62.36-.95A2.08,2.08,0,0,0,45.53,61.63Z"/><path d="M42.92,67l.19-.17a3.17,3.17,0,0,0-.93.58,2,2,0,0,0-.46,1.28c0,.46.07.92.08,1.38a5,5,0,0,1-.3,1.8c-.2.51-.47,1-.69,1.48s-.41,1.2-.64,1.79a9.62,9.62,0,0,1-3.67,4.56.14.14,0,0,1,0,.06,9.69,9.69,0,0,0,4.44-5c.22-.59.39-1.21.64-1.79s.49-1,.68-1.48a4.61,4.61,0,0,0,.3-1.8c0-.46-.08-.92-.07-1.38A1.94,1.94,0,0,1,42.92,67Z"/></g></g></g></g></svg>