<svg xmlns="http://www.w3.org/2000/svg" xmlns:xlink="http://www.w3.org/1999/xlink" viewBox="0 0 15.15 19.22"><defs><style>.cls-1{opacity:0.9;isolation:isolate;fill:url(#linear-gradient);}</style><linearGradient id="linear-gradient" y1="9.61" x2="15.15" y2="9.61" gradientUnits="userSpaceOnUse"><stop offset="0" stop-color="#774fe5"/><stop offset="1" stop-color="#692fdc"/></linearGradient></defs><title>Asset 61</title><g id="Layer_2" data-name="Layer 2"><g id="Layer_1-2" data-name="Layer 1"><path class="cls-1" d="M8.18,6.37a.82.82,0,0,0-1.2,0L4.31,9a.85.85,0,0,0,0,1.21.86.86,0,0,0,1.22,0l1.2-1.19v6.11a.86.86,0,1,0,1.71,0V9.06s1.17,1.15,1.19,1.19A.87.87,0,0,0,10.87,9S8.18,6.37,8.18,6.37Zm6.73-2L10.77.26A.85.85,0,0,0,10.15,0H.88A.86.86,0,0,0,0,.88V18.35a.86.86,0,0,0,.88.87H14.29a.84.84,0,0,0,.85-.87V5a.7.7,0,0,0-.23-.62ZM1.75,1.75H9.27L9.29,5a.86.86,0,0,0,.86.85h3.26v11.6H1.75Z"/></g></g></svg>