<svg xmlns="http://www.w3.org/2000/svg" xmlns:xlink="http://www.w3.org/1999/xlink" viewBox="0 0 521 295.66"><defs><style>.cls-1,.cls-3,.cls-6,.cls-7{fill:#7f41fa;}.cls-1,.cls-17,.cls-8{opacity:0.1;}.cls-1,.cls-13,.cls-4,.cls-6,.cls-7,.cls-8{isolation:isolate;}.cls-2{fill:none;stroke:#535461;stroke-miterlimit:10;stroke-width:2px;}.cls-4{opacity:0.25;}.cls-5{fill:#fff;}.cls-6{opacity:0.2;}.cls-7{opacity:0.5;}.cls-9{fill:#ffd037;}.cls-10{fill:#444053;}.cls-11{fill:#9d9cb5;}.cls-12{fill:url(#linear-gradient);}.cls-13{opacity:0.02;}.cls-14{fill:#efb7b9;}.cls-15{fill:#ff6484;}.cls-16{fill:#925978;}</style><linearGradient id="linear-gradient" x1="433.92" y1="-13689.26" x2="433.92" y2="-13580.02" gradientTransform="matrix(1, 0, 0, -1, -56.96, -13395.2)" gradientUnits="userSpaceOnUse"><stop offset="0" stop-color="gray" stop-opacity="0.25"/><stop offset="0.54" stop-color="gray" stop-opacity="0.12"/><stop offset="1" stop-color="gray" stop-opacity="0.1"/></linearGradient></defs><title>Asset 47</title><g id="Layer_2" data-name="Layer 2"><g id="Layer_1-2" data-name="Layer 1"><path class="cls-1" d="M292.25,40.33c-30.28-.18-59.31-7.92-87.06-16.49S149.93,5.73,120.27,1.53C101.19-1.15,79.45-1.07,64.36,8.1,49.83,16.92,45.42,31.65,43.2,45.28c-1.69,10.25-2.56,21,2.95,30.45,3.83,6.54,10.46,12,15.12,18.21,16.18,21.72,5.8,49.25-10.64,71.24-7.73,10.32-16.7,20.21-22.58,31.13s-8.41,23.35-2.78,34.21,18.48,18.65,32.36,24.07c28.19,11,61.17,13.57,93.28,14.68,71.1,2.48,142.44-1.07,213.58-4.61,26.33-1.32,52.77-2.64,78.6-6.77,14.35-2.3,29.13-5.77,39.4-13.5,13.05-9.83,15.95-26,6.76-37.7-15.38-19.63-56.73-23.6-67.66-44.8-6-11.67-.46-25,7.62-36.12C446.52,101.84,476,80.49,476.92,53.6c.63-18.47-14.22-36.6-36.71-44.78C416.6.2,384.27,2.14,367.39,17.7,350,33.72,319,40.48,292.25,40.33Z"/><g id="db976b58-83c4-4bad-bfc1-713fe8b9d2f6"><path class="cls-2" d="M275,117.9s-13.28-23.53-33.29-30.31A41,41,0,0,1,221,72.08a69.25,69.25,0,0,1-6.12-11"/><path class="cls-3" d="M202.31,56.72c2.27,2.21,12.89,4.5,12.89,4.5s-2.6-10.54-4.88-12.76a5.75,5.75,0,0,0-8,8.26Z"/><path class="cls-3" d="M208.33,75.81c3.12.62,13.28-3.23,13.28-3.23s-8-7.45-11.06-8.06a5.75,5.75,0,0,0-2.22,11.29Z"/><path class="cls-3" d="M230.18,96.44c3-1,9.83-9.48,9.83-9.48s-10.59-2.42-13.59-1.39A5.76,5.76,0,1,0,230,96.5l.15-.06Z"/><path class="cls-3" d="M250.25,108.34c3.13-.51,11.28-7.69,11.28-7.69s-10-4.18-13.16-3.66a5.75,5.75,0,1,0,1.88,11.35Z"/><path class="cls-3" d="M230.44,64.33c0,3.18-5.75,12.39-5.75,12.39s-5.76-9.21-5.76-12.39a5.76,5.76,0,0,1,11.51,0Z"/><path class="cls-3" d="M253.73,78.54c-1,3-9.18,10.1-9.18,10.1s-2.74-10.51-1.79-13.53a5.75,5.75,0,1,1,11,3.44h0Z"/><path class="cls-3" d="M274.47,95.45c-.42,3.16-7.35,11.52-7.35,11.52s-4.47-9.9-4.05-13a5.75,5.75,0,0,1,11.4,1.53Z"/><path class="cls-4" d="M202.31,56.72c2.27,2.21,12.89,4.5,12.89,4.5s-2.6-10.54-4.88-12.76a5.75,5.75,0,0,0-8,8.26Z"/><path class="cls-4" d="M208.33,75.81c3.12.62,13.28-3.23,13.28-3.23s-8-7.45-11.06-8.06a5.75,5.75,0,0,0-2.22,11.29Z"/><path class="cls-4" d="M230.18,96.44c3-1,9.83-9.48,9.83-9.48s-10.59-2.42-13.59-1.39A5.76,5.76,0,1,0,230,96.5l.15-.06Z"/><path class="cls-4" d="M250.25,108.34c3.13-.51,11.28-7.69,11.28-7.69s-10-4.18-13.16-3.66a5.75,5.75,0,1,0,1.88,11.35Z"/><path class="cls-4" d="M230.44,64.33c0,3.18-5.75,12.39-5.75,12.39s-5.76-9.21-5.76-12.39a5.76,5.76,0,0,1,11.51,0Z"/><path class="cls-4" d="M253.73,78.54c-1,3-9.18,10.1-9.18,10.1s-2.74-10.51-1.79-13.53a5.75,5.75,0,1,1,11,3.44h0Z"/><path class="cls-4" d="M274.47,95.45c-.42,3.16-7.35,11.52-7.35,11.52s-4.47-9.9-4.05-13a5.75,5.75,0,0,1,11.4,1.53Z"/><path class="cls-2" d="M274.27,117.44s-2.61-26.9-18.14-41.21a40.93,40.93,0,0,1-12.68-22.58,68.6,68.6,0,0,1-1.13-12.55"/><path class="cls-3" d="M232.58,32c1.18,2.94,10,9.34,10,9.34s1.89-10.7.71-13.65a5.76,5.76,0,0,0-10.74,4.14C232.53,31.91,232.55,32,232.58,32Z"/><path class="cls-3" d="M230.34,51.91c2.6,1.82,13.44,2.41,13.44,2.41s-4.23-10-6.82-11.83a5.75,5.75,0,1,0-6.62,9.41Z"/><path class="cls-3" d="M242,79.64c3.17.27,12.83-4.69,12.83-4.69s-8.7-6.5-11.86-6.77a5.75,5.75,0,1,0-1,11.46Z"/><path class="cls-3" d="M255.49,98.65c3.07.8,13.43-2.46,13.43-2.46s-7.47-7.88-10.55-8.7a5.75,5.75,0,0,0-3.46,11c.19.06.37.11.56.15Z"/><path class="cls-3" d="M255.22,50.38c-1.29,2.9-10.28,9-10.28,9s-1.53-10.75-.24-13.65a5.75,5.75,0,1,1,10.52,4.65Z"/><path class="cls-3" d="M270.75,72.81c-2.1,2.39-12.5,5.51-12.5,5.51s1.75-10.71,3.86-13.1a5.75,5.75,0,1,1,8.65,7.59h0Z"/><path class="cls-3" d="M282.85,96.68c-1.66,2.71-11.38,7.55-11.38,7.55s-.09-10.86,1.58-13.57a5.75,5.75,0,0,1,9.8,6Z"/></g><path class="cls-1" d="M399.48,288.5c1.42,2.9-8.66,6-21.16,6.92-11.19.8-20.4-.51-21.56-2.87s6-5.22,16.92-6.51C385.9,284.61,398.05,285.63,399.48,288.5Z"/><polygon class="cls-5" points="105.73 135.12 259.71 80.58 259.71 268.98 105.73 265.77 105.73 135.12"/><polygon class="cls-6" points="105.73 135.12 259.71 80.58 259.71 268.98 105.73 265.77 105.73 135.12"/><polygon class="cls-5" points="0 166.23 87.84 135.12 87.84 265.77 0 265.77 0 166.23"/><polygon class="cls-6" points="0 166.23 87.84 135.12 87.84 265.77 0 265.77 0 166.23"/><polygon class="cls-5" points="259.71 80.58 413.68 135.12 413.68 265.77 259.71 268.98 259.71 80.58"/><polygon class="cls-7" points="259.71 80.58 413.68 135.12 413.68 265.77 259.71 268.98 259.71 80.58"/><polygon class="cls-5" points="521 166.62 432.05 135.12 432.05 265.77 521 265.77 521 166.62"/><polygon class="cls-7" points="521 166.62 432.05 135.12 432.05 265.77 521 265.77 521 166.62"/><path class="cls-5" d="M51.19,188.91c-.62,0-1.13.85-1.13,1.9v23.64a14.1,14.1,0,0,1-1.6,6.71,5.1,5.1,0,0,1-4,2.9h-1c-1.45,0-2.87-1.08-4-3a13.66,13.66,0,0,1-1.75-6.76v-30.5A9.14,9.14,0,0,1,39,179a3.66,3.66,0,0,1,3-2,3.53,3.53,0,0,1,2.9,2A9.52,9.52,0,0,1,46,183.83v28.48c0,2.08-1,3.92-2.11,3.92-1,0-2-1.57-2-3.92V196c0-1-.51-1.9-1.14-1.9s-1.13.86-1.13,1.9v16.25c0,4.32,1.85,7.58,4.31,7.58a3.71,3.71,0,0,0,3.11-2.1,11,11,0,0,0,1.27-5.48V183.81a14.76,14.76,0,0,0-1.89-7.52c-1.2-2-2.8-3.1-4.51-3.1s-3.3,1.09-4.51,3.1a14.62,14.62,0,0,0-1.89,7.53v30.5a19.11,19.11,0,0,0,2.37,9.49c1.48,2.45,3.48,3.87,5.53,3.87h1c2,0,4-1.42,5.51-3.91a16.07,16.07,0,0,0,1.74-4.2,20.67,20.67,0,0,0,.65-5.13V190.76c0-1-.49-1.9-1.13-1.9Z"/><path class="cls-3" d="M267.58,241.55s2.86,3.76-1.33,9.41-7.65,10.45-6.25,14c0,0,6.32-10.51,11.47-10.63S273.23,247.88,267.58,241.55Z"/><path class="cls-8" d="M267.58,241.55a5.39,5.39,0,0,1,.58,1.18c5,5.9,7.69,11.4,2.87,11.54-4.5.13-9.89,8.16-11.18,10.19a4,4,0,0,0,.15.49s6.32-10.51,11.47-10.64S273.23,247.88,267.58,241.55Z"/><path class="cls-9" d="M272.9,246.33c0,1.32-.15,2.39-.33,2.39s-.33-1.07-.33-2.39.18-.7.37-.7S272.9,245,272.9,246.33Z"/><path class="cls-9" d="M274.73,247.91c-1.16.63-2.17,1-2.25.85s.78-.8,1.93-1.45.7-.17.79,0S275.89,247.28,274.73,247.91Z"/><path class="cls-3" d="M252.43,241.55s-2.86,3.76,1.33,9.41,7.64,10.45,6.24,14c0,0-6.31-10.51-11.46-10.63S246.77,247.88,252.43,241.55Z"/><path class="cls-8" d="M252.43,241.55a5,5,0,0,0-.58,1.18c-5,5.9-7.7,11.4-2.87,11.54,4.49.13,9.89,8.16,11.18,10.19a4,4,0,0,1-.16.49s-6.31-10.51-11.46-10.64S246.77,247.88,252.43,241.55Z"/><path class="cls-9" d="M247.11,246.33c0,1.32.14,2.39.33,2.39s.33-1.07.33-2.39-.19-.7-.37-.7S247.11,245,247.11,246.33Z"/><path class="cls-9" d="M245.28,247.91c1.16.63,2.17,1,2.25.85s-.78-.8-1.93-1.45-.7-.17-.79,0S244.1,247.28,245.28,247.91Z"/><ellipse class="cls-1" cx="260" cy="289" rx="29.97" ry="4.6"/><path class="cls-10" d="M275.43,259.88l-.14,1.17-.21,1.65-.08.69-.2,1.65-.09.69-.2,1.65-2.29,18.81c-.21,1.67-3,3-6.26,3H254.05c-3.31,0-6.05-1.31-6.26-3l-2.29-18.81-.21-1.65-.08-.69-.2-1.65-.09-.69-.2-1.65-.14-1.17c-.12-1,1.37-1.76,3.24-1.76h24.37C274.07,258.12,275.55,258.93,275.43,259.88Z"/><polygon class="cls-11" points="275.29 261.05 275.08 262.7 244.92 262.7 244.72 261.05 275.29 261.05"/><polygon class="cls-11" points="275 263.39 274.8 265.04 245.21 265.04 245.01 263.39 275 263.39"/><polygon class="cls-11" points="274.71 265.74 274.51 267.39 245.5 267.39 245.29 265.74 274.71 265.74"/><path class="cls-5" d="M201.74,157.78l-4.61,6.14a.38.38,0,0,1-.36.15L192,162.93a.51.51,0,0,1-.33-.44l-.85-6.32a.63.63,0,0,1,.11-.48l4.61-6.12a1.33,1.33,0,0,0-.11-1.65,5,5,0,0,0-3.27-1.45H192a9.17,9.17,0,0,0-6.17,4,16.29,16.29,0,0,0-2.31,14.22,2.69,2.69,0,0,1-.28,2.68c-.76,1-20.52,25.62-20.52,25.62-1.85,2.11-1.71,6,0,8.29a4.13,4.13,0,0,0,3.22,1.74,3.61,3.61,0,0,0,3-1.79s18.43-26,19.33-27.18a1.43,1.43,0,0,1,1.14-.69,1.48,1.48,0,0,1,.88.32,5.81,5.81,0,0,0,3.33,1,9.87,9.87,0,0,0,7.42-4,14.58,14.58,0,0,0,3-8.18,9,9,0,0,0-1.1-4.65.7.7,0,0,0-.93-.37.79.79,0,0,0-.31.26Zm-34.8,40.58a1.22,1.22,0,0,1-1.69.35,1.17,1.17,0,0,1-.35-.35,2.4,2.4,0,0,1,0-2.71,1.22,1.22,0,0,1,1.69-.35,1.17,1.17,0,0,1,.35.35,2.41,2.41,0,0,1,0,2.71Z"/><path class="cls-5" d="M365.16,169.64c-1.28-14.75-11.28-26.24-23.44-26.24-8.05,0-15.14,5-19.4,12.69a9.19,9.19,0,0,0-4.23-1c-6.15,0-11.12,6.76-11.23,14.39-6.28,2.5-10.42,10.15-10.42,18.18,0,9.85,6.4,18.54,14.29,18.54h51.93c7.89,0,14.29-8.7,14.29-18.54,0-8.76-5.1-16.49-11.79-18Zm-11.73-3.38-21,26.34h0a2.65,2.65,0,0,1-1.83,1.08,2.59,2.59,0,0,1-1.83-1.12l-8.82-11a.89.89,0,0,1,0-1.11l2.79-3.49a.58.58,0,0,1,.44-.24.55.55,0,0,1,.44.24l7,8.7,19.18-24.11a.57.57,0,0,1,.44-.23.55.55,0,0,1,.44.23l2.75,3.56a.9.9,0,0,1,0,1.13Z"/><path class="cls-5" d="M492.45,195.46a5.13,5.13,0,0,1-1.55-.25l-4.71,6.41a.29.29,0,0,0,0,.37l7.49,10.64a2.14,2.14,0,0,1,0,2.44,1.1,1.1,0,0,1-1.83,0l-7.47-10.63a.18.18,0,0,0-.24-.05l-.05.05-1.82,2.47c-1.52,2.06-3.54,1.75-5.72,1.77a7.41,7.41,0,0,1-5.83-3.31L469,203a.18.18,0,0,0-.24-.05.12.12,0,0,0-.05.05l-7.47,10.63a1.1,1.1,0,0,1-1.83,0,2.14,2.14,0,0,1,0-2.44l7.5-10.64a.4.4,0,0,0,0-.37l-10.73-14.56c-.13-.17-.34-.05-.34.19v29.13c0,2.34,1.45,4.26,3.19,4.26l35.05,1.45c1.75,0,3.18-1.94,3.18-4.26V192.73A5.94,5.94,0,0,1,492.45,195.46Z"/><path class="cls-5" d="M485.83,186.62a11.28,11.28,0,0,1,.82-4.25L459,180.92a2.7,2.7,0,0,0-2,.93l15.62,21.22a4.84,4.84,0,0,0,3.89,2.18c1.45,0,2.87.68,3.9-.73l8-10.88A10.05,10.05,0,0,1,485.83,186.62Z"/><path class="cls-3" d="M437.81,263.21s-6.82-.41-6,4.35a1.18,1.18,0,0,0,.6,1.23s0-.36.7-.24a3.07,3.07,0,0,0,.74,0,1.52,1.52,0,0,0,.91-.38h0s1.93-.79,2.66-3.92c0,0,.55-.68.53-.86l-1.15.48a2.05,2.05,0,0,1,.08,1.52s0-1.49-.25-1.45c-.05,0-.6.29-.6.29a3.44,3.44,0,0,1,.17,2.49s.19-1.78-.39-2.41l-.8.48a3.64,3.64,0,0,1,.25,2.72,5.11,5.11,0,0,0-.42-2.6l-.74.57a3.43,3.43,0,0,1,.29,2.48s-.06-2.17-.45-2.34a5.09,5.09,0,0,0-.74.8s.49,1.07.2,1.63c0,0-.2-1.45-.36-1.45a4.86,4.86,0,0,0-.7,1.62,3.49,3.49,0,0,1,.55-1.71,2,2,0,0,0-1,.49s.1-.69,1.14-.74a4.59,4.59,0,0,1,.67-.78,4.08,4.08,0,0,0-1.66.2,1.85,1.85,0,0,1,1.85-.36l.72-.59a6.25,6.25,0,0,0-1.93,0,2.37,2.37,0,0,1,2.13-.15l.79-.48a6.78,6.78,0,0,0-1.85-.16,2.8,2.8,0,0,1,2.08,0l.56-.26s-.84-.16-1.09-.19-.27-.1-.27-.1a3.12,3.12,0,0,1,1.6.18A6.72,6.72,0,0,0,437.81,263.21Z"/><ellipse class="cls-1" cx="433.12" cy="269.22" rx="4.82" ry="0.82"/><path class="cls-12" d="M395.05,215.56s.56-.54.38-.9a.83.83,0,0,1,0-.72s-1.25-4.9-1.71-5.39a3.8,3.8,0,0,1-.7-1.22.57.57,0,0,0,.07-.31,2.52,2.52,0,0,0-.48-1.37,3.41,3.41,0,0,1-.58-1.81v-.24h0a2.43,2.43,0,0,0-1.67-1.49c.16-1,.38-2.07.45-3.12.21-3.27-1-6.45-2.2-9.51a10.78,10.78,0,0,0-1.05-2.16,6.29,6.29,0,0,0-4.52-2.46,4.35,4.35,0,0,0-1.93.18,6.27,6.27,0,0,0-1.67,1.12c-.51.44-1,.88-1.51,1.35l-.06.06-.17.18-.07.07-.15.18-.06.06-.21.25h0c-.06.08-.13.16-.18.24l-.06.08-.13.18-.06.1-.11.18-.05.09a2.49,2.49,0,0,0-.15.28l-.18.39v.05l-.1.26a9.41,9.41,0,0,1-.42.91h0l0,.05-.35.42a3.57,3.57,0,0,0-.4.68l0,.07a.36.36,0,0,1,0,.11l0,.09a.61.61,0,0,1,0,.11v.09l0,.11v.09a.2.2,0,0,1,0,.11v1.33l0,.12v.08l0,.14a.1.1,0,0,0,0,.06s.05.13.08.2a5.68,5.68,0,0,0,.54.92l.43.57.21.29a4.78,4.78,0,0,1,.38.61,4.18,4.18,0,0,1-.15,4.16l-.17.27a1.36,1.36,0,0,0-.2.48,1.06,1.06,0,0,0,.28.83l-.43.11-.6.17a6.46,6.46,0,0,0-.88,0,2.45,2.45,0,0,0-1.06.68s-1.84.22-2.45-.32a7.16,7.16,0,0,0-2.72-.72,4.55,4.55,0,0,0-1.25-1.53c-.64-.36-2.21-1-2.26-1.39a3.13,3.13,0,0,0-.6-1,5.14,5.14,0,0,0-1-.12l-.1-.17-1.3-2.23s-1.61-1.89-2.49-2.07,1.23,2,1.33,2.11a1.37,1.37,0,0,0-1.93.32c-.68.76,1.14,2.55,2.27,3.54l.18.16a1.57,1.57,0,0,0,.05.3c.5,2.65,3.32,4.95,3.32,4.95s.32,1.48,1.38,1.84c.85.29,5.39,2.35,7.76,2.76a4,4,0,0,0,.55,3.45s.23,3.1-.27,3.51-.49,4.9-.49,4.9-1.93,7.82,0,9.49a1.73,1.73,0,0,0,.41.25c0,.12,0,.24.05.38a3.84,3.84,0,0,1-.09,1.93c-.48.76.16,2.83.16,2.83s-1.87,10.57-1,14.3a42.85,42.85,0,0,1,.73,8.46s-.28,3.28,1.15,5.26a5.56,5.56,0,0,1,.28,1.45,8.38,8.38,0,0,0,.74,2.74c.32.63,1,3.29.42,4s.59,8.55.59,8.55-.92,2.41,0,3.68l0,0a6.88,6.88,0,0,1-1.62-.23c-1-.35-.26,1,1,1.86-.54,1.22-1.27,2.85-1.52,3.39a13.48,13.48,0,0,1-4.42.18c-1.71-.4.74,2.34,3,2.84a21.57,21.57,0,0,0,4.94.36l1.49-1.64a19.15,19.15,0,0,0,3.63.13l-.13,1.53H384v-1.59c.55-.05,1.13-.12,1.71-.23,0,0,0-1.67-.07-3.25l.54.05.08-.88,1.9.34,1.71-14s.19-5.22.6-8.14-.88-12.73-.88-12.73-.09-.49-.18-1.39,0-6.21,0-6.21a18.82,18.82,0,0,0,.55-3.15,5.3,5.3,0,0,1,.05-1.49c2.9-5.91-.67-11.25-1.91-12.83a.42.42,0,0,0,.12-.26.17.17,0,0,0,0-.1,11.37,11.37,0,0,0-.7-1.45l.73-.92.43.63a8.75,8.75,0,0,1,1.57-2.42c.79-.66,4.57-7,4.57-7s.88-.59.41-1.08S395.05,215.56,395.05,215.56Zm-11.62,49.75a1.36,1.36,0,0,0-.33-.54s-.14-1-.19-2.21c.28,1,.56,1.67.56,1.67Zm2.17,23V288h.07Zm.57-64v-.05a.72.72,0,0,1,.3-.65.32.32,0,0,0,.16-.31,1.14,1.14,0,0,0-.22-.56c.09.07.37.22.57-.34a.84.84,0,0,0,0-.27,2.25,2.25,0,0,0-.55-1.27l2.09-4.4a4.18,4.18,0,0,0,.7.16h0c-.55,1.7-1,3.71-1,3.71l-1.61,3.55a.83.83,0,0,1,.28.21Z"/><path class="cls-10" d="M379.23,285.54a12.54,12.54,0,0,1-4-.12c-1.32-.46.41,1.93,2.19,2.51a17,17,0,0,0,3.87.66l2.09-2,2.23.17-.39,2.18.69.07.27-2.85Z"/><path class="cls-8" d="M379.23,285.54a12.54,12.54,0,0,1-4-.12c-1.32-.46.41,1.93,2.19,2.51a17,17,0,0,0,3.87.66l2.09-2,2.23.17-.39,2.18.69.07.27-2.85Z"/><path class="cls-10" d="M375.31,290.52s-3.26.71-4.91.31.72,2.32,3,2.81a21.18,21.18,0,0,0,4.77.36l2.32-2.63,2.71-.05-.22,2.7h.85v-3.5Z"/><path class="cls-8" d="M375.31,290.52s-3.26.71-4.91.31.72,2.32,3,2.81a21.18,21.18,0,0,0,4.77.36l2.32-2.63,2.71-.05-.22,2.7h.85v-3.5Z"/><path class="cls-10" d="M387.34,228.59s5.58,6.2,2.24,13.2a5.21,5.21,0,0,0-.05,1.47,20.22,20.22,0,0,1-.53,3.12s-.09,5.26,0,6.16.18,1.37.18,1.37,1.24,9.72.84,12.62-.58,8.07-.58,8.07l-1.65,13.91-8.56-1.6,3.87-19.09.14-3.38s-1.61-4.14-.9-6.24-.18-28.8-.18-28.8Z"/><path class="cls-13" d="M387.34,228.59s5.58,6.2,2.24,13.2a5.21,5.21,0,0,0-.05,1.47,20.22,20.22,0,0,1-.53,3.12s-.09,5.26,0,6.16.18,1.37.18,1.37,1.24,9.72.84,12.62-.58,8.07-.58,8.07l-1.65,13.91-8.56-1.6,3.87-19.09.14-3.38s-1.61-4.14-.9-6.24-.18-28.8-.18-28.8Z"/><path class="cls-10" d="M383.25,258.55c-1,1.87-.36,6.42-.36,6.42,1.29,1.12.58,10.84.58,10.84s.89,9.58,1.45,10.7.48,5.7.48,5.7a16.42,16.42,0,0,1-10.83-1.38s2.09-4.77,2.14-5,.3.21.38.31l-.38-.54c-.9-1.24,0-3.65,0-3.65s-1.12-7.73-.58-8.47-.09-3.35-.4-4a8.56,8.56,0,0,1-.72-2.72,5.32,5.32,0,0,0-.27-1.43c-1.38-2-1.11-5.21-1.11-5.21a42.79,42.79,0,0,0-.71-8.38c-.8-3.71,1-14.18,1-14.18s-.6-2-.16-2.81a3.86,3.86,0,0,0,.09-1.94c-.11-1-.31-1.86-.31-1.86l12.18-2.15c.25.43.48.84.7,1.24,4,7.43,1.31,10.19,1.31,10.19l-2.58,7.94S384.23,256.68,383.25,258.55Z"/><path class="cls-14" d="M364,200.37l-1.74,1.45s-.35-.27-.8-.68c-1.09-1-2.85-2.76-2.19-3.52a1.33,1.33,0,0,1,1.83-.34l0,0c-.09-.11-2.11-2.27-1.28-2.09s2.42,2.05,2.42,2.05l1.24,2.21Z"/><polygon class="cls-14" points="387.26 224.45 385.21 225.07 386.76 227.79 388.55 225.47 387.26 224.45"/><circle class="cls-14" cx="382.44" cy="193.06" r="5.84"/><path class="cls-14" d="M379,195.19s5.31,8.43.27,9.14,6.76,5.84,6.76,5.84l4.42-4.45s-4.59-7.94-3.87-11S379,195.19,379,195.19Z"/><path class="cls-8" d="M386.44,230.08a29.63,29.63,0,0,1-3.59.83s-6.58,2.9-9,1.93c-.11-1-.31-1.86-.31-1.86l12.15-2.14C386,229.27,386.22,229.68,386.44,230.08Z"/><path class="cls-15" d="M392.48,208l-1.19,2.46L390,213.26l-.19.4-1.59,3.43-2,4.35s.72.85.48,1.52-.53.35-.57.31.48.64.08.89a.85.85,0,0,0-.26.85,32.15,32.15,0,0,1,2,3.7c.31,1-5,1.83-5,1.83s-7.54,3.34-9.42,1.69,0-9.4,0-9.4,0-4.46.49-4.86.26-3.48.26-3.48c-1.29-2.37-.4-3.7-.4-3.7l-.35-6.07s.58-.62,1-.66a4,4,0,0,1,.85,0l.58-.18a4.88,4.88,0,0,1,2.32-.27c.62.31,4.64-.48,4.64-.48a47.58,47.58,0,0,1,5.21-.49,5.3,5.3,0,0,1,1.77.2,2.36,2.36,0,0,1,1.71,1.5,3.11,3.11,0,0,0,.53,2C392.79,207.55,392.48,208,392.48,208Z"/><path class="cls-8" d="M364,200.37l-1.74,1.45s-.35-.27-.8-.68c-.14-1.5,1.14-1.7,2-1.66Z"/><path class="cls-15" d="M374.19,204.7l-.76,0s-1.78.22-2.36-.31a6.56,6.56,0,0,0-2.63-.72,4.39,4.39,0,0,0-1.2-1.51c-.63-.36-2.14-1-2.19-1.39a3,3,0,0,0-.58-1s-3.34-.8-2.85,1.83,3.21,4.9,3.21,4.9.32,1.45,1.34,1.83,7.67,3.48,8.74,2.68S374.19,204.7,374.19,204.7Z"/><path class="cls-8" d="M392.07,206.37a3.1,3.1,0,0,1-.53-2.05,2.38,2.38,0,0,0-1.71-1.5,5,5,0,0,0-.87-.17,2.39,2.39,0,0,1,1.69,1.49,3.08,3.08,0,0,0,.53,2.05c.71,1.16.4,1.66.4,1.66l-1.19,2.45-1.34,2.78-.19.39-1.59,3.44-2,4.35s.71.85.49,1.52-.54.35-.58.31.48.63.09.89a.85.85,0,0,0-.27.85,30.62,30.62,0,0,1,2,3.7c.31,1-5,1.83-5,1.83s-5.24,2.32-8.07,2.14c2.42.94,9-2,9-2s5.32-.84,5-1.82a32.15,32.15,0,0,0-2-3.7.85.85,0,0,1,.27-.85c.38-.26-.05-.84-.09-.89s.37.31.58-.31-.48-1.52-.48-1.52l2-4.35,1.59-3.44.19-.39,1.34-2.77,1.19-2.46S392.79,207.53,392.07,206.37Z"/><path class="cls-15" d="M391.67,207.37l.8.67a3.82,3.82,0,0,0,.67,1.2c.45.49,1.65,5.35,1.65,5.35a.88.88,0,0,0,0,.71c.18.36-.35.9-.35.9s-.27-.09.17.4-.4,1.07-.4,1.07-3.65,6.24-4.41,6.91a8.92,8.92,0,0,0-1.52,2.42s-1.58-2.5-2-2.55l1.56-3.52s1.07-4.9,1.87-5.8-.4-4-.4-4Z"/><path class="cls-8" d="M392.18,216.46a3.27,3.27,0,0,1-2.9.86,2.57,2.57,0,0,1-.46-.07l-.67-.16a7.07,7.07,0,0,1-2.22-1.09,1.29,1.29,0,0,0-.48-.28,1,1,0,0,0-1.05.56c-.23.36-.34.79-.57,1.15a2.65,2.65,0,0,1-2.19,1.07,7.48,7.48,0,0,1-2.48-.48,7.44,7.44,0,0,0,1.59-2.64,6.37,6.37,0,0,0,.13-2c-.2-3.16-1.29-6.49-3.87-8.32a2.9,2.9,0,0,1-1.13-1.18,4.89,4.89,0,0,1,2.32-.27c.62.31,4.64-.49,4.64-.49a50.62,50.62,0,0,1,5.22-.48,5.5,5.5,0,0,1,1.76.19,11.45,11.45,0,0,0-.14,4,9,9,0,0,0,.88,2.35c.23.44.48.88.72,1.32a9.65,9.65,0,0,1,1.45,3.81A2.93,2.93,0,0,1,392.18,216.46Z"/><path class="cls-8" d="M383.37,222.74a3,3,0,0,1,1-.09,1.88,1.88,0,0,1,.78.46H382.9a3,3,0,0,1-1.93-.39C381.37,222.32,382.79,222.81,383.37,222.74Z"/><path class="cls-16" d="M375.43,192.38a3.44,3.44,0,0,0-.4,3.35c.37.87,1.07,1.54,1.51,2.37a4.27,4.27,0,0,1-.15,4.13,1.87,1.87,0,0,0-.35.74c-.11.68.59,1.17,1.16,1.57,2.57,1.83,3.66,5.16,3.86,8.31a6.12,6.12,0,0,1-.12,2,7.44,7.44,0,0,1-1.59,2.64,7.74,7.74,0,0,0,2.48.48A2.65,2.65,0,0,0,384,216.9c.23-.36.34-.79.57-1.16a1,1,0,0,1,1.05-.56,1.44,1.44,0,0,1,.48.28,7,7,0,0,0,3.35,1.32,3.25,3.25,0,0,0,2.9-.86,3,3,0,0,0,.55-2.15c-.23-2.7-2.52-4.84-3.05-7.48-.43-2.15.35-4.35.49-6.54.21-3.24-1-6.39-2.13-9.42a10.28,10.28,0,0,0-1-2.15,6,6,0,0,0-4.35-2.42A4.14,4.14,0,0,0,381,186a6.18,6.18,0,0,0-1.62,1.1,11.37,11.37,0,0,0-2.9,3.28c-.26.54-.43,1.12-.72,1.64"/><g class="cls-17"><path d="M376.48,191.2c.28-.53.48-1.11.72-1.65a6.84,6.84,0,0,1,.92-1.39,7.87,7.87,0,0,0-1.64,2.15c-.25.53-.42,1.09-.69,1.6l.35-.3c-.09.13-.17.25-.25.39A3.85,3.85,0,0,0,376.48,191.2Z"/><path d="M390.19,216a7.19,7.19,0,0,1-3.35-1.32,1.47,1.47,0,0,0-.48-.29,1,1,0,0,0-1.05.57c-.05.08-.09.16-.13.24a.72.72,0,0,1,.48,0,1.51,1.51,0,0,1,.49.29,6.89,6.89,0,0,0,3.35,1.31,3.29,3.29,0,0,0,2.9-.85,2,2,0,0,0,.22-.34A3.74,3.74,0,0,1,390.19,216Z"/><path d="M382.53,217.21a7.8,7.8,0,0,1-2.48-.48,7.39,7.39,0,0,0,1.59-2.65,6.28,6.28,0,0,0,.13-2c-.2-3.16-1.29-6.49-3.87-8.32-.56-.4-1.26-.89-1.16-1.57a2.21,2.21,0,0,1,.36-.74,4.27,4.27,0,0,0,.15-4.13c-.44-.83-1.14-1.51-1.51-2.37a3.48,3.48,0,0,1,.15-3,4.59,4.59,0,0,1-.39.37,4,4,0,0,1-.33.39,3.51,3.51,0,0,0-.15,3c.37.87,1.08,1.54,1.51,2.37a4.27,4.27,0,0,1-.14,4.13,2,2,0,0,0-.36.74c-.11.68.6,1.17,1.16,1.57,2.57,1.83,3.67,5.16,3.87,8.31a6.72,6.72,0,0,1-.12,2,7.46,7.46,0,0,1-1.6,2.64,7.86,7.86,0,0,0,2.49.48A2.63,2.63,0,0,0,384,216.9l.09-.15A3,3,0,0,1,382.53,217.21Z"/></g></g></g></svg>