<svg xmlns="http://www.w3.org/2000/svg" xmlns:xlink="http://www.w3.org/1999/xlink" viewBox="0 0 163.11 109.16"><defs><style>.cls-1,.cls-30{fill:#7f41fa;}.cls-1,.cls-17,.cls-18,.cls-19,.cls-27,.cls-6{opacity:0.1;}.cls-1,.cls-17,.cls-18,.cls-19,.cls-27,.cls-3{isolation:isolate;}.cls-2{opacity:0.95;}.cls-3{fill:#6c63ff;opacity:0.2;}.cls-4{opacity:0.7;}.cls-5{fill:url(#linear-gradient);}.cls-7{fill:url(#linear-gradient-2);}.cls-8{fill:url(#linear-gradient-3);}.cls-9{fill:url(#linear-gradient-4);}.cls-10{fill:url(#linear-gradient-5);}.cls-11{fill:url(#linear-gradient-6);}.cls-12{fill:url(#linear-gradient-7);}.cls-13{fill:url(#linear-gradient-8);}.cls-14{fill:url(#linear-gradient-9);}.cls-15{fill:url(#linear-gradient-10);}.cls-16{fill:url(#linear-gradient-11);}.cls-17{fill:url(#linear-gradient-12);}.cls-18{fill:url(#linear-gradient-13);}.cls-19{fill:url(#linear-gradient-14);}.cls-20{fill:url(#linear-gradient-15);}.cls-21{fill:url(#linear-gradient-16);}.cls-22{fill:url(#linear-gradient-17);}.cls-23{fill:url(#linear-gradient-18);}.cls-24{fill:url(#linear-gradient-19);}.cls-25{fill:url(#linear-gradient-20);}.cls-26{fill:#535461;}.cls-28{fill:#e0e0e0;}.cls-29{fill:#fda57d;}.cls-31{fill:#a26565;}.cls-32{fill:url(#linear-gradient-21);}.cls-33{fill:#fdb797;}.cls-34{fill:#3ad29f;}.cls-35{fill:#454b69;}.cls-36{fill:#f86d70;}.cls-37{fill:url(#linear-gradient-22);}.cls-38{fill:url(#linear-gradient-23);}.cls-39{fill:#3e3f49;}</style><linearGradient id="linear-gradient" x1="144.43" y1="-12144.49" x2="163.67" y2="-12144.49" gradientTransform="matrix(1, 0, 0, -1, -105, -12052.86)" gradientUnits="userSpaceOnUse"><stop offset="0" stop-color="gray" stop-opacity="0.25"/><stop offset="0.54" stop-color="gray" stop-opacity="0.12"/><stop offset="1" stop-color="gray" stop-opacity="0.1"/></linearGradient><linearGradient id="linear-gradient-2" x1="150.1" y1="-12117.14" x2="176.73" y2="-12117.14" xlink:href="#linear-gradient"/><linearGradient id="linear-gradient-3" x1="150.1" y1="-12116.78" x2="176.73" y2="-12116.78" xlink:href="#linear-gradient"/><linearGradient id="linear-gradient-4" x1="156.78" y1="-12090.3" x2="170.38" y2="-12090.3" xlink:href="#linear-gradient"/><linearGradient id="linear-gradient-5" x1="138.78" y1="-12119.59" x2="162.22" y2="-12119.59" xlink:href="#linear-gradient"/><linearGradient id="linear-gradient-6" x1="138.41" y1="-12119.59" x2="161.85" y2="-12119.59" xlink:href="#linear-gradient"/><linearGradient id="linear-gradient-7" x1="137.72" y1="-12110.15" x2="159.5" y2="-12110.15" xlink:href="#linear-gradient"/><linearGradient id="linear-gradient-8" x1="166.25" y1="-12112.03" x2="189.81" y2="-12112.03" xlink:href="#linear-gradient"/><linearGradient id="linear-gradient-9" x1="166.61" y1="-12112.03" x2="190.17" y2="-12112.03" xlink:href="#linear-gradient"/><linearGradient id="linear-gradient-10" x1="50.08" y1="-12021.3" x2="56.4" y2="-12021.3" gradientTransform="matrix(1, 0, 0, -1, 0, -11981.97)" xlink:href="#linear-gradient"/><linearGradient id="linear-gradient-11" x1="60.76" y1="-12023.6" x2="65.12" y2="-12023.6" gradientTransform="matrix(1, 0, 0, -1, 0, -11981.97)" xlink:href="#linear-gradient"/><linearGradient id="linear-gradient-12" x1="172.66" y1="-12107.01" x2="174.29" y2="-12107.01" xlink:href="#linear-gradient"/><linearGradient id="linear-gradient-13" x1="146.35" y1="-12110.15" x2="149.24" y2="-12110.15" xlink:href="#linear-gradient"/><linearGradient id="linear-gradient-14" x1="148.52" y1="-12122.4" x2="156.78" y2="-12122.4" xlink:href="#linear-gradient"/><linearGradient id="linear-gradient-15" x1="159.25" y1="-12085.72" x2="169.73" y2="-12085.72" xlink:href="#linear-gradient"/><linearGradient id="linear-gradient-16" x1="53.41" y1="-12009.56" x2="70.11" y2="-12009.56" gradientTransform="matrix(1, 0, 0, -1, 0, -11981.97)" xlink:href="#linear-gradient"/><linearGradient id="linear-gradient-17" x1="154.61" y1="-12075.86" x2="174.58" y2="-12075.86" xlink:href="#linear-gradient"/><linearGradient id="linear-gradient-18" x1="154.43" y1="-12075.68" x2="174.39" y2="-12075.68" xlink:href="#linear-gradient"/><linearGradient id="linear-gradient-19" x1="162.68" y1="-12087.53" x2="173.88" y2="-12087.53" xlink:href="#linear-gradient"/><linearGradient id="linear-gradient-20" x1="162.68" y1="-12087.71" x2="173.88" y2="-12087.71" xlink:href="#linear-gradient"/><linearGradient id="linear-gradient-21" x1="205" y1="-12133.75" x2="205" y2="-12071.33" xlink:href="#linear-gradient"/><linearGradient id="linear-gradient-22" x1="87.61" y1="-12086.01" x2="87.61" y2="-12054.99" gradientTransform="matrix(1, 0, 0, -1, 0, -11981.97)" xlink:href="#linear-gradient"/><linearGradient id="linear-gradient-23" x1="87.4" y1="-12056.92" x2="87.4" y2="-12029.37" gradientTransform="matrix(1, 0, 0, -1, 0, -11981.97)" xlink:href="#linear-gradient"/></defs><title>Asset 46</title><g id="Layer_2" data-name="Layer 2"><g id="Layer_1-2" data-name="Layer 1"><path class="cls-1" d="M94.77,18c-10.46-.36-20.42-3.74-29.93-7.43S45.91,2.78,35.71.82C29.14-.44,21.63-.61,16.35,2.91c-5.1,3.38-6.74,9.23-7.62,14.65-.67,4.09-1.06,8.38.76,12.2,1.27,2.66,3.52,4.89,5.07,7.43C20,46,16.15,56.93,10.28,65.56c-2.74,4-5.93,7.92-8,12.23S-.87,87,1,91.43s6.22,7.64,11,9.94c9.64,4.68,21,6,32.09,6.77,24.53,1.68,49.19,1,73.79.23,9.1-.27,18.24-.54,27.2-2,5-.78,10.1-2,13.71-5a11.51,11.51,0,0,0,2.65-15c-5.15-8-19.39-10-23-18.56-2-4.72,0-10,2.93-14.36,6.18-9.4,16.53-17.65,17.08-28.39.37-7.38-4.61-14.77-12.3-18.26C138,3.16,126.85,3.63,120.9,9.68,114.77,15.92,104,18.32,94.77,18Z"/><g class="cls-2"><path class="cls-3" d="M124.08,90.24H113.22V84.12h10.86Zm-10.41-.46h10v-5.2h-10Z"/><path class="cls-3" d="M45.15,90.24H34.29V84.12H45.15Zm-10.4-.46h9.94v-5.2H34.75Z"/><g class="cls-4"><path class="cls-5" d="M54.5,80.89s-13.25-4.85-15.07,2l5.09,12.92.54,8.26H56.13V97s-1.63-7,2.54-11.3Z"/><g class="cls-6"><path class="cls-7" d="M56.72,42.44a1.82,1.82,0,0,0-1.7,0,4.45,4.45,0,0,0-.59.83c-.69.91-2.07.74-3.16,1.06-1.61.47-2.6,2.07-3.17,3.63-2.52,6.88.29,14.75-1.9,21.74-.65,2.06-1.71,4.34-.66,6.23a8.33,8.33,0,0,1,1.08,1.86c.24,1-.22,2.19.58,2.76a2.34,2.34,0,0,0,.86.31c1.78.47,3.14,1.86,4.5,3.1s3,2.43,4.84,2.35A8.07,8.07,0,0,0,59.16,86l9.16-2.55a4.2,4.2,0,0,0,2.45-1.35,3.89,3.89,0,0,0,.51-1.64,45,45,0,0,0,.45-6.56,5.78,5.78,0,0,0-.31-2.15,14.84,14.84,0,0,0-1.36-2.11A11.5,11.5,0,0,1,68.75,65a24.77,24.77,0,0,1-.2-7.68c.2-1.08.54-2.14.77-3.22a15.46,15.46,0,0,0,.18-5.34,7.69,7.69,0,0,0-1.69-4.09,4.32,4.32,0,0,0-2.54-1.37c-1.23-.15-1.85.56-3,.82C60.68,44.52,58.29,43,56.72,42.44Z"/></g><path class="cls-8" d="M56.72,42.08a1.82,1.82,0,0,0-1.7,0,4.53,4.53,0,0,0-.59.84c-.69.9-2.07.73-3.16,1-1.61.48-2.6,2.07-3.17,3.63-2.52,6.88.29,14.76-1.9,21.75-.65,2-1.71,4.34-.66,6.23a8.27,8.27,0,0,1,1.08,1.85c.24,1-.22,2.19.58,2.77a2.53,2.53,0,0,0,.86.31c1.78.47,3.14,1.86,4.5,3.09s3,2.45,4.84,2.36a7.52,7.52,0,0,0,1.76-.35l9.16-2.55a4.14,4.14,0,0,0,2.45-1.34,3.93,3.93,0,0,0,.51-1.64,45.15,45.15,0,0,0,.45-6.57,5.7,5.7,0,0,0-.31-2.14,14.3,14.3,0,0,0-1.36-2.11,11.55,11.55,0,0,1-1.31-4.64,24.77,24.77,0,0,1-.2-7.68c.2-1.08.54-2.14.77-3.22a15.45,15.45,0,0,0,.18-5.34,7.66,7.66,0,0,0-1.69-4.08,4.28,4.28,0,0,0-2.54-1.38c-1.23-.15-1.85.56-3,.83C60.68,44.16,58.29,42.6,56.72,42.08Z"/><path class="cls-9" d="M54.14,28.49s.18,6.82-2,6.64,6.17,11.31,6.17,11.31l7.07-3.77S61.21,36,64.12,31.9,54.14,28.49,54.14,28.49Z"/><g class="cls-6"><path class="cls-10" d="M42,86.45s-1.45,9.87-5.08,7.18a8.27,8.27,0,0,1-3.09-7.18s7.08-19,6.72-21.89S52.61,39.37,52.61,39.37L57.22,76S43.43,81.07,42,86.45Z"/></g><path class="cls-11" d="M41.61,86.45s-1.45,9.87-5.08,7.18a8.27,8.27,0,0,1-3.09-7.18s7.08-19,6.72-21.89S52.24,39.37,52.24,39.37L56.85,76S43.06,81.07,41.61,86.45Z"/><path class="cls-12" d="M54.5,32.8s-7.08,4.84-9.81,4.66L42.58,38A11.59,11.59,0,0,0,34.2,47l0,.17c-1.09,5.75-1.45,21.54-1.45,21.54s.18,4.13,2,5.2l11.63,7.89s-.37-8.61,4-9.51-1.09-.36-1.09-.36l-8-4.66s.19-7,2.36-9.33,9.81-14.53,9.81-14.53l-2.18-7.54Z"/><g class="cls-6"><path class="cls-13" d="M62.3,37.46s4.46,1.17,7.58,1.74a3.14,3.14,0,0,1,2.27,1.71c.95,2,2.38,5.46,2.13,8.4L77,59.89l7.8,9.33-7.08,3.24-8-8.8,6.53,16.69-12.16.54S60.49,54,61.4,49.49Z"/></g><path class="cls-14" d="M62.67,37.46s4.46,1.17,7.58,1.74a3.16,3.16,0,0,1,2.27,1.71c.94,2,2.38,5.46,2.13,8.4l2.72,10.58,7.8,9.33-7.08,3.23-8-8.79,6.54,16.69-12.16.54S60.85,54,61.76,49.49Z"/><polygon class="cls-15" points="53.9 32.23 56.41 44.37 52.32 46.44 50.08 35.5 53.9 32.23"/><polygon class="cls-16" points="60.76 45.27 62.67 37.46 65.12 42.04 63.85 45.81 60.76 45.27"/><path class="cls-17" d="M67.66,47.6s0,12.21,1.63,13.1"/><path class="cls-18" d="M44.24,50.65s-3.77,12-2.7,13.28"/><path class="cls-19" d="M43.52,67.16s7.26,4.69,8.26,4.77"/><g class="cls-6"><path class="cls-20" d="M54.32,29.21s0,1.05-.07,2.31a8.33,8.33,0,0,0,7.69,5.05,8.54,8.54,0,0,0,1.34-.1,6.16,6.16,0,0,1,1-3.85C67.2,28.49,54.32,29.21,54.32,29.21Z"/></g><ellipse class="cls-21" cx="61.76" cy="27.6" rx="8.35" ry="8.25"/><g class="cls-6"><path class="cls-22" d="M67.06,24.13c1,.13,2.29-.2,2.49-1.19.25-1.26-1.44-2.07-1.71-3.32-.09-.47,0-1,0-1.43a3.5,3.5,0,0,0-1.7-2.25,13.13,13.13,0,0,0-8.66-2.29,2,2,0,0,0-1.07.34,4.09,4.09,0,0,0-.69,1.07c-.78,1.25-2.54,1.4-3.8,2.18a5.36,5.36,0,0,0-2.27,4.42,16,16,0,0,0,.91,5.06,11.71,11.71,0,0,0,1.77,4,4,4,0,0,0,3.88,1.6c-.66-.47-.18-1.56.53-1.94a10.84,10.84,0,0,0,2.22-1,4,4,0,0,0,1-2.17,5.68,5.68,0,0,1,1.34-2.72C62.7,23.09,65.3,23.89,67.06,24.13Z"/></g><path class="cls-23" d="M66.87,24c1,.13,2.3-.2,2.5-1.19.24-1.25-1.45-2.07-1.71-3.32-.1-.47,0-1,0-1.43a3.49,3.49,0,0,0-1.69-2.25,13.18,13.18,0,0,0-8.66-2.29,2,2,0,0,0-1.07.34,4.09,4.09,0,0,0-.69,1.07c-.78,1.25-2.54,1.4-3.8,2.18a5.39,5.39,0,0,0-2.28,4.42,16,16,0,0,0,.92,5.06,11.71,11.71,0,0,0,1.77,4A4,4,0,0,0,56,32.14c-.66-.47-.18-1.56.53-1.94a10.75,10.75,0,0,0,2.21-1,4,4,0,0,0,1-2.17,5.68,5.68,0,0,1,1.34-2.72C62.52,22.91,65.11,23.71,66.87,24Z"/><g class="cls-6"><path class="cls-24" d="M60.32,28.71A11.13,11.13,0,0,1,59.41,32a25.37,25.37,0,0,0-1.73,3.79h0a60.25,60.25,0,0,1,5,4.31,4,4,0,0,0,4.17,1A2.66,2.66,0,0,0,68.75,39a6.76,6.76,0,0,0-.42-4,3,3,0,0,1,0-2.45,1,1,0,0,1,.43-.55s-3.26-.71-3.45.18S62.58,34,62,32.35l-.16-3.56a.77.77,0,0,0-.78-.74h0A.77.77,0,0,0,60.32,28.71Z"/></g><path class="cls-25" d="M60.32,28.89a11.13,11.13,0,0,1-.91,3.26,25.37,25.37,0,0,0-1.73,3.79h0a60.25,60.25,0,0,1,5,4.31,4,4,0,0,0,4.17,1,2.66,2.66,0,0,0,1.86-2.09,6.76,6.76,0,0,0-.42-4,3,3,0,0,1,0-2.45,1,1,0,0,1,.43-.55s-3.26-.71-3.45.18-2.72,1.8-3.26.18L61.88,29a.77.77,0,0,0-.78-.74h0A.77.77,0,0,0,60.32,28.89Z"/></g><path class="cls-26" d="M54.68,80.77S42,76.07,40.21,82.69l4.88,12.54.52,8H56.24v-6.8s-1.57-6.8,2.45-11Z"/><path class="cls-27" d="M56.81,43.44a1.71,1.71,0,0,0-1.63,0,4.22,4.22,0,0,0-.57.81c-.66.88-2,.72-3,1-1.54.46-2.49,2-3,3.52-2.41,6.68.28,14.33-1.82,21.11-.62,2-1.64,4.22-.64,6.06a8,8,0,0,1,1,1.8c.22.92-.21,2.12.55,2.68a2.4,2.4,0,0,0,.82.31c1.72.46,3,1.81,4.32,3s2.88,2.36,4.65,2.28a7.45,7.45,0,0,0,1.69-.34l8.79-2.47a4,4,0,0,0,2.35-1.31,3.79,3.79,0,0,0,.49-1.6A41.16,41.16,0,0,0,71.21,74a5.58,5.58,0,0,0-.29-2.08,13.43,13.43,0,0,0-1.31-2,11.25,11.25,0,0,1-1.25-4.5,24.28,24.28,0,0,1-.2-7.46c.19-1.05.53-2.08.75-3.13a15,15,0,0,0,.16-5.18,7.37,7.37,0,0,0-1.61-4A4.07,4.07,0,0,0,65,44.26c-1.19-.15-1.78.55-2.84.81C60.61,45.45,58.32,43.94,56.81,43.44Z"/><path class="cls-28" d="M56.81,43.09a1.74,1.74,0,0,0-1.63,0,4,4,0,0,0-.57.82c-.66.87-2,.71-3,1-1.54.46-2.49,2-3,3.52-2.41,6.68.28,14.33-1.82,21.11-.62,2-1.64,4.22-.64,6.06a8,8,0,0,1,1,1.8c.22.92-.21,2.12.55,2.68a2.4,2.4,0,0,0,.82.31c1.72.46,3,1.81,4.32,3s2.88,2.36,4.65,2.28a7.45,7.45,0,0,0,1.69-.34l8.79-2.47a4,4,0,0,0,2.35-1.31A3.79,3.79,0,0,0,70.78,80a41.29,41.29,0,0,0,.43-6.38,5.64,5.64,0,0,0-.29-2.08,13.93,13.93,0,0,0-1.31-2.05A11.32,11.32,0,0,1,68.36,65a24.28,24.28,0,0,1-.2-7.46c.19-1.05.53-2.08.75-3.12a15.34,15.34,0,0,0,.17-5.19,7.49,7.49,0,0,0-1.62-4A4.08,4.08,0,0,0,65,43.91c-1.19-.15-1.78.55-2.84.8C60.61,45.1,58.32,43.59,56.81,43.09Z"/><path class="cls-29" d="M54.33,29.89s.17,6.62-1.92,6.45,5.93,11,5.93,11l6.79-3.66s-4-6.45-1.22-10.46S54.33,29.89,54.33,29.89Z"/><path class="cls-27" d="M42.65,86.18s-1.39,9.58-4.88,7a8.08,8.08,0,0,1-3-7s6.8-18.48,6.45-21.26,11.6-24.47,11.6-24.47l4.43,35.62S44.05,81,42.65,86.18Z"/><path class="cls-30" d="M42.3,86.18s-1.39,9.58-4.88,7a8.08,8.08,0,0,1-3-7s6.8-18.48,6.45-21.26S52.52,40.45,52.52,40.45l4.42,35.62S43.7,81,42.3,86.18Z"/><path class="cls-30" d="M54.68,34.07s-6.8,4.71-9.41,4.53l-2,.56a11.22,11.22,0,0,0-8.05,8.68l0,.17c-1,5.58-1.39,20.91-1.39,20.91s.17,4,1.91,5l11.15,7.68s-.34-8.37,3.84-9.24-1.05-.35-1.05-.35L42,67.53s.17-6.8,2.26-9.06,9.41-14.12,9.41-14.12L51.54,37Z"/><path class="cls-27" d="M62.17,38.6s4.28,1.14,7.28,1.69A3,3,0,0,1,71.62,42c.91,1.89,2.29,5.3,2,8.15l2.61,10.28,7.5,9.06L77,72.58l-7.66-8.53,6.27,16.21-11.68.51S60.43,54.63,61.3,50.28Z"/><path class="cls-30" d="M62.52,38.6s4.28,1.14,7.28,1.69A3,3,0,0,1,72,42c.91,1.89,2.29,5.3,2,8.15l2.61,10.28,7.5,9.06-6.8,3.14L69.66,64l6.28,16.21-11.68.52s-3.49-26.14-2.61-30.49Z"/><polygon class="cls-28" points="54.1 33.52 56.51 45.31 52.59 47.32 50.44 36.69 54.1 33.52"/><polygon class="cls-28" points="60.69 46.18 62.52 38.6 64.87 43.05 63.65 46.71 60.69 46.18"/><path class="cls-27" d="M67.31,48.45s0,11.85,1.57,12.72"/><path class="cls-27" d="M44.83,51.41s-3.62,11.67-2.6,12.89"/><path class="cls-27" d="M44.13,67.44s7,4.56,7.93,4.63"/><path class="cls-27" d="M54.5,30.59s0,1-.07,2.25a8,8,0,0,0,8.68,4.79,6,6,0,0,1,1-3.73C66.87,29.89,54.5,30.59,54.5,30.59Z"/><circle class="cls-29" cx="61.65" cy="29.02" r="8.02"/><path class="cls-27" d="M66.73,25.65c1,.13,2.21-.19,2.4-1.15.23-1.22-1.39-2-1.64-3.22-.1-.46,0-.93,0-1.39a3.4,3.4,0,0,0-1.62-2.18,12.51,12.51,0,0,0-8.32-2.22,1.94,1.94,0,0,0-1,.33,3.84,3.84,0,0,0-.66,1c-.75,1.22-2.45,1.36-3.65,2.12A5.21,5.21,0,0,0,50,23.27a15.35,15.35,0,0,0,.88,4.91,11.1,11.1,0,0,0,1.7,3.88,3.81,3.81,0,0,0,3.72,1.56c-.63-.46-.17-1.51.51-1.88a11.05,11.05,0,0,0,2.13-.95,3.9,3.9,0,0,0,1-2.12A5.55,5.55,0,0,1,61.17,26C62.55,24.64,65,25.42,66.73,25.65Z"/><path class="cls-31" d="M66.57,25.48c1,.13,2.2-.2,2.39-1.16.24-1.22-1.39-2-1.64-3.21-.09-.46,0-.93,0-1.39a3.39,3.39,0,0,0-1.63-2.19,12.49,12.49,0,0,0-8.31-2.22,1.85,1.85,0,0,0-1,.32,3.89,3.89,0,0,0-.66,1C54.9,17.89,53.2,18,52,18.79a5.28,5.28,0,0,0-2.19,4.3A15.64,15.64,0,0,0,50.7,28a11.26,11.26,0,0,0,1.7,3.88,3.81,3.81,0,0,0,3.72,1.56c-.63-.46-.17-1.52.51-1.89a11,11,0,0,0,2.13-.94,4,4,0,0,0,1-2.12A5.55,5.55,0,0,1,61,25.85C62.38,24.47,64.87,25.25,66.57,25.48Z"/><path class="cls-27" d="M60.26,30.1a10.78,10.78,0,0,1-.87,3.17,26.34,26.34,0,0,0-1.67,3.67h0a58.56,58.56,0,0,1,4.85,4.18,3.74,3.74,0,0,0,4,1,2.53,2.53,0,0,0,1.79-2,6.68,6.68,0,0,0-.4-3.89,2.92,2.92,0,0,1,0-2.37c.12-.27.26-.48.42-.53,0,0-3.14-.7-3.31.17s-2.61,1.74-3.14.18l-.14-3.46a.76.76,0,0,0-.76-.73h0A.76.76,0,0,0,60.26,30.1Z"/><path class="cls-31" d="M60.26,30.28a10.72,10.72,0,0,1-.87,3.16,25.94,25.94,0,0,0-1.67,3.68h0a56.55,56.55,0,0,1,4.85,4.18,3.76,3.76,0,0,0,4,1,2.56,2.56,0,0,0,1.79-2,6.7,6.7,0,0,0-.4-3.89,2.9,2.9,0,0,1,0-2.38c.12-.26.26-.47.42-.52,0,0-3.14-.7-3.32.17s-2.6,1.75-3.13.19l-.15-3.46a.75.75,0,0,0-.75-.73h0A.76.76,0,0,0,60.26,30.28Z"/><path class="cls-32" d="M122.55,79.85a18.86,18.86,0,0,1-4.31-7.34h.27l-.13-.36h.13L118.1,71a8.18,8.18,0,0,0,2.16-2.87c.23-1.06.47-6.79.61-10.77l.12,0a3.3,3.3,0,0,0,.35-1.78,7.06,7.06,0,0,0-.25-2l-.57-5.68A3.9,3.9,0,0,0,119,45.25l-5.75-4.46a3.5,3.5,0,0,1,1.13-1,2.51,2.51,0,0,0,.93-.59c.4-.54.06-1.34.33-2,.21-.46.71-.72,1-1.13.6-.84.16-2-.29-2.94l-2.62-5.42a25,25,0,0,0-2.47-4.33,12.89,12.89,0,0,0-14-4.31,5.53,5.53,0,0,0-3.27,2.81,7.47,7.47,0,0,1-.63,1.41c-.67.93-2,1.1-2.9,1.77a4.25,4.25,0,0,0-1.47,3.95,12.53,12.53,0,0,0,1.5,4.13A12.76,12.76,0,0,0,93.11,37c.53.49,1.18.94,1.35,1.65a11.4,11.4,0,0,1-.06,1.84,1.73,1.73,0,0,0,.23.74c-2.58.33-4.4,2.47-5.22,5.65,0,.19-.07.3-.07.3L89,50.49v.41a4.44,4.44,0,0,0,.46,2.15V64.61l-11,7c-1.65.74-1.28,6.61,2,7.71s6.24-5.86,6.24-5.86c2-.13,5.4-2.82,7.21-4.89a3.48,3.48,0,0,0,1,1c-1.31,3-3.9,9.08-3.49,10.32.25.75,6.69.82,13.66.68a3.93,3.93,0,0,0,.56.24,2.51,2.51,0,0,0,2.14-.31C115.26,80.24,122.55,79.85,122.55,79.85Zm-9.31-22.43c.16-.42.66-.65,1.33-.76v4.46Zm-.64-15.67h0l0,0Z"/><path class="cls-33" d="M96.06,51.85s-.35,12.37-.69,13.94-5.4,6.26-8,6.45c0,0-2.79,6.62-5.93,5.57s-3.48-6.62-1.91-7.32L90,63.87V50.63Z"/><path class="cls-34" d="M95.8,67s-4.53,9.75-4,11.32,29.63,0,29.63,0S116,72.93,117.06,67Z"/><path class="cls-33" d="M99.29,38.08s.7,6.8-.53,8.37,4.88,2.44,5.41,2.44a56.74,56.74,0,0,0,7.14-2.44c1-.54,1.92-4.36,1.92-4.36s-5.23,1-6.8-5.05Z"/><path class="cls-35" d="M97.46,20.65a5.2,5.2,0,0,0-3.1,2.67,6.37,6.37,0,0,1-.6,1.33c-.63.89-1.87,1.05-2.75,1.68a4.05,4.05,0,0,0-1.39,3.75A11.71,11.71,0,0,0,91,34a12.18,12.18,0,0,0,2.42,3.64,3.52,3.52,0,0,1,1.29,1.56A13.05,13.05,0,0,1,94.69,41c.13,1.45,1.86,2.12,3.3,2.28a2.14,2.14,0,0,0,1.79-.38,3.13,3.13,0,0,0,.49-.83,4,4,0,0,1,7.16-.08c.34.65.54,1.45,1.16,1.84.94.61,2.2-.11,2.9-1s1.2-2,2.2-2.52a2.6,2.6,0,0,0,.88-.56c.38-.52.06-1.28.32-1.86s.67-.68,1-1.08c.58-.8.16-1.9-.27-2.79l-2.49-5.14a22.62,22.62,0,0,0-2.35-4.12A12.23,12.23,0,0,0,97.46,20.65Z"/><path class="cls-27" d="M103.82,47.66s6.79,0,8.54-6.27l5.72,4.44a3.72,3.72,0,0,1,1.41,2.54l.53,5.4a4.88,4.88,0,0,1-.08,3.22s-7.23-1.83-7.41.26l5,14.12s-7.84.17-9.93-1.22c0,0-8.54,1.74-10.63-.18s-4.19-1.74-2.45-6.1a8.62,8.62,0,0,1-1.92-8.36c1.57-4.88.09.08.09.08s-3.38-1.65-3.21-4.8l.35-3.13s0-.11.07-.29c1.06-4.13,3.91-6.43,7.93-5a3.64,3.64,0,0,0,2.37-.06S98.94,48,103.82,47.66Z"/><path class="cls-36" d="M103.82,47.32s6.79,0,8.54-6.28l5.72,4.44A3.72,3.72,0,0,1,119.49,48l.53,5.4a4.88,4.88,0,0,1-.08,3.22s-7.23-1.83-7.41.27l5,14.11s-7.84.17-9.93-1.22c0,0-8.54,1.74-10.63-.18s-4.19-1.74-2.45-6.1a8.62,8.62,0,0,1-1.92-8.36c1.57-4.88.09.08.09.08s-3.38-1.65-3.21-4.79l.35-3.13s0-.11.07-.3c1.06-4.12,3.91-6.42,7.93-5a3.64,3.64,0,0,0,2.37-.06S98.94,47.66,103.82,47.32Z"/><path class="cls-33" d="M119.94,53.24s-.35,12.37-.7,13.94-5.4,6.27-8,6.45c0,0-2.78,6.62-5.92,5.58s-3.49-6.63-1.92-7.32l10.46-6.62V52Z"/><path class="cls-27" d="M112.45,53.68s4,2.72,7.5,2.49c0,0,.34-4.67-.7-4.93S113.66,51.24,112.45,53.68Z"/><path class="cls-36" d="M112.45,53.5s4,2.72,7.5,2.5c0,0,.34-4.68-.7-4.94S113.66,51.06,112.45,53.5Z"/><path class="cls-27" d="M106.78,37.38l-7.14,1s.16,1.57.19,3.38a8,8,0,0,0,8.41-1.37A7.87,7.87,0,0,1,106.78,37.38Z"/><circle class="cls-33" cx="102.6" cy="34.07" r="8.02"/><path class="cls-27" d="M104.71,32.53a2.44,2.44,0,0,1-1.07.15c-1.42,0-2.83-.06-4.25-.15a5.27,5.27,0,0,1-3-.88,3.49,3.49,0,0,1-.71-4,7.12,7.12,0,0,1,3-3.06,8.92,8.92,0,0,1,2.25-1,7.53,7.53,0,0,1,6.66,1.67,11.78,11.78,0,0,1,3.61,6c.21.79.48,1.74,1.27,2a2.14,2.14,0,0,1-2.72.57c-1.36-.64-2-3.11-3.27-3.5S105.86,32,104.71,32.53Z"/><path class="cls-35" d="M104.71,32.36a2.44,2.44,0,0,1-1.07.15c-1.42,0-2.83-.06-4.25-.15a5.2,5.2,0,0,1-3-.89,3.48,3.48,0,0,1-.71-4,7.12,7.12,0,0,1,3-3.06,8.76,8.76,0,0,1,2.25-1,7.53,7.53,0,0,1,6.66,1.67,11.78,11.78,0,0,1,3.61,6c.21.79.48,1.74,1.27,2a2.13,2.13,0,0,1-2.72.58c-1.36-.65-2-3.11-3.27-3.5S105.86,31.83,104.71,32.36Z"/><path class="cls-27" d="M94.5,63.44a30.9,30.9,0,0,1,8-1"/><path class="cls-27" d="M112.45,54s-2.61,1.91-1.92,3"/><g class="cls-4"><polygon class="cls-37" points="130.39 73.02 44.83 73.02 44.83 80.5 49.81 80.5 49.81 81.96 49.81 104.04 125.59 104.04 125.59 81.96 125.59 80.5 130.39 80.5 130.39 73.02"/></g><rect class="cls-28" x="50.58" y="77.38" width="74.24" height="26.66"/><rect class="cls-27" x="50.58" y="78.77" width="74.24" height="4.18"/><rect class="cls-28" x="45.7" y="74.41" width="83.82" height="7.14"/><rect class="cls-26" x="57.72" y="72.66" width="16.03" height="2.27" rx="0.99"/><g class="cls-4"><rect class="cls-38" x="67.47" y="47.4" width="39.85" height="27.55" rx="4.32"/></g><rect class="cls-39" x="68.18" y="47.91" width="37.75" height="27.04" rx="4.11"/><rect class="cls-26" x="68.71" y="47.91" width="37.75" height="27.04" rx="4.11"/><circle class="cls-28" cx="89.34" cy="61.24" r="1.22"/><path class="cls-27" d="M39.43,77.9s1,1.51,4.09,2"/></g></g></g></svg>