<svg xmlns="http://www.w3.org/2000/svg" viewBox="0 0 19.43 25.14"><defs><style>.cls-1{fill:#212121;opacity:0.4;}</style></defs><title>Asset 56</title><g id="Layer_2" data-name="Layer 2"><g id="Layer_1-2" data-name="Layer 1"><path class="cls-1" d="M17.41,0H2A2,2,0,0,0,0,2v21.1a2,2,0,0,0,2,2H17.41a2,2,0,0,0,2-2V2A2,2,0,0,0,17.41,0ZM18.8,23.12a1.39,1.39,0,0,1-1.39,1.39H2A1.39,1.39,0,0,1,.63,23.12V2A1.39,1.39,0,0,1,2,.63H17.41A1.39,1.39,0,0,1,18.8,2Z"/><path class="cls-1" d="M11.16,9.54h5a.31.31,0,1,0,0-.62h-5a.31.31,0,1,0,0,.62Z"/><path class="cls-1" d="M11.16,6.56h5a.32.32,0,0,0,0-.63h-5a.32.32,0,0,0,0,.63Z"/><path class="cls-1" d="M14.86,12.14h-.78a.31.31,0,0,0-.32.31.32.32,0,0,0,.32.32h.78a.32.32,0,0,0,.31-.32A.31.31,0,0,0,14.86,12.14Z"/><path class="cls-1" d="M11.7,12.14a.31.31,0,0,0-.31.31.32.32,0,0,0,.31.32h.78a.32.32,0,0,0,.32-.32.31.31,0,0,0-.32-.31Z"/><path class="cls-1" d="M9.32,12.77h.78a.32.32,0,0,0,.32-.32.31.31,0,0,0-.32-.31H9.32a.31.31,0,0,0-.31.31A.32.32,0,0,0,9.32,12.77Z"/><path class="cls-1" d="M7,12.14a.31.31,0,0,0-.32.31.32.32,0,0,0,.32.32h.78A.32.32,0,0,0,8,12.45a.31.31,0,0,0-.31-.31Z"/><path class="cls-1" d="M5.67,12.45a.32.32,0,0,0-.32-.31H4.57a.31.31,0,0,0-.31.31.32.32,0,0,0,.31.32h.78A.33.33,0,0,0,5.67,12.45Z"/><path class="cls-1" d="M8.83,9.28v-6A.31.31,0,0,0,8.51,3H3.36A.32.32,0,0,0,3,3.26v6a.32.32,0,0,0,.32.32H8.51A.32.32,0,0,0,8.83,9.28ZM8.2,9H3.67V3.57H8.2Z"/><path class="cls-1" d="M14.61,17.49a.32.32,0,0,0,.13-.36.31.31,0,0,0-.31-.22,1.54,1.54,0,0,1-1.3-.63A1.32,1.32,0,0,1,13,15a.31.31,0,0,0-.1-.36.3.3,0,0,0-.38,0,1.58,1.58,0,0,1-1.43.21,1.42,1.42,0,0,1-1-.94.31.31,0,0,0-.6,0,1.44,1.44,0,0,1-.95.94,1.6,1.6,0,0,1-1.44-.21.29.29,0,0,0-.37,0,.33.33,0,0,0-.11.36,1.35,1.35,0,0,1-.16,1.26,1.56,1.56,0,0,1-1.31.63.31.31,0,0,0-.3.22.3.3,0,0,0,.13.36,1.38,1.38,0,0,1,0,2.34.29.29,0,0,0-.13.35.3.3,0,0,0,.3.22A1.6,1.6,0,0,1,6.47,21a1.35,1.35,0,0,1,.16,1.26.33.33,0,0,0,.11.36.32.32,0,0,0,.37,0,1.6,1.6,0,0,1,1.44-.22,1.48,1.48,0,0,1,.95.95.31.31,0,0,0,.6,0,1.45,1.45,0,0,1,1-.95,1.58,1.58,0,0,1,1.43.22.33.33,0,0,0,.38,0,.31.31,0,0,0,.1-.36A1.32,1.32,0,0,1,13.13,21a1.55,1.55,0,0,1,1.3-.64.31.31,0,0,0,.18-.57,1.38,1.38,0,0,1,0-2.34Zm-.87,2.38a2.11,2.11,0,0,0-1.12.8,2,2,0,0,0-.38,1.17,2.2,2.2,0,0,0-1.39,0,2,2,0,0,0-1,.75,2.09,2.09,0,0,0-1.06-.75,2.06,2.06,0,0,0-.7-.12,2.31,2.31,0,0,0-.69.11A2,2,0,0,0,7,20.67a2.17,2.17,0,0,0-1.13-.8,2,2,0,0,0,.42-1.21,2,2,0,0,0-.42-1.21A2.23,2.23,0,0,0,7,16.65a2,2,0,0,0,.37-1.18,2.2,2.2,0,0,0,1.39,0,2.11,2.11,0,0,0,1.06-.76,2,2,0,0,0,1,.76,2.2,2.2,0,0,0,1.39,0,2,2,0,0,0,.38,1.18,2.16,2.16,0,0,0,1.12.8,2,2,0,0,0-.41,1.21A2,2,0,0,0,13.74,19.87Z"/><path class="cls-1" d="M9.8,16a2.62,2.62,0,1,0,2.62,2.62A2.62,2.62,0,0,0,9.8,16Zm0,4.61a2,2,0,1,1,2-2A2,2,0,0,1,9.8,20.65Z"/></g></g></svg>