<svg xmlns="http://www.w3.org/2000/svg" xmlns:xlink="http://www.w3.org/1999/xlink" viewBox="0 0 175.1 121.92"><defs><style>.cls-1{opacity:0.9;}.cls-2,.cls-4{fill:#7f41fa;}.cls-2,.cls-3,.cls-8{opacity:0.1;}.cls-10,.cls-12,.cls-2,.cls-8{isolation:isolate;}.cls-5{fill:url(#linear-gradient);}.cls-6{fill:#fbbebe;}.cls-7{fill:#464353;}.cls-9{fill:#f86d70;}.cls-10{opacity:0.05;}.cls-11{fill:#3f3d56;}.cls-12{opacity:0.2;}.cls-13{fill:#fff;}.cls-14{fill:none;stroke:#3f3d56;stroke-miterlimit:10;stroke-width:9px;}</style><linearGradient id="linear-gradient" x1="216.1" y1="-12169.99" x2="216.1" y2="-12081.92" gradientTransform="matrix(1, 0, 0, -1, -91.39, -12048.07)" gradientUnits="userSpaceOnUse"><stop offset="0" stop-color="gray" stop-opacity="0.25"/><stop offset="0.54" stop-color="gray" stop-opacity="0.12"/><stop offset="1" stop-color="gray" stop-opacity="0.1"/></linearGradient></defs><title>Asset 44</title><g id="Layer_2" data-name="Layer 2"><g id="Layer_1-2" data-name="Layer 1"><g class="cls-1"><path class="cls-2" d="M102.29,19.17c-11.14-.39-21.75-4-31.88-7.92S50.24,3,39.36.88c-7-1.34-15-1.53-20.62,2.22-5.43,3.61-7.18,9.83-8.12,15.61-.71,4.35-1.13,8.93.82,13,1.34,2.83,3.74,5.2,5.39,7.91,5.76,9.42,1.69,21-4.55,30.23C9.35,74.17,6,78.29,3.7,82.88S.39,92.73,2.37,97.42,9,105.55,14.05,108c10.28,5,22.38,6.41,34.19,7.22,26.14,1.79,52.41,1,78.62.24,9.7-.29,19.44-.58,29-2.08,5.29-.83,10.76-2.16,14.61-5.34a12.23,12.23,0,0,0,2.82-16c-5.49-8.52-20.66-10.64-24.5-19.78-2.11-5,.06-10.64,3.13-15.31,6.58-10,17.61-18.79,18.2-30.24C170.49,18.87,165.19,11,157,7.28c-8.6-3.9-20.52-3.41-26.85,3C123.6,17,112.13,19.51,102.29,19.17Z"/><g class="cls-3"><path class="cls-4" d="M14.86,56.52S2,51.1.31,60.86a2.38,2.38,0,0,0,.34,2.78s.26-.67,1.51,0a5.88,5.88,0,0,0,1.4.57,3.12,3.12,0,0,0,2-.1h0s4.23-.23,7.79-5.77c0,0,1.53-.94,1.61-1.3l-2.55.17a4.25,4.25,0,0,1-.87,3s.94-2.9.49-3c-.09,0-1.35.15-1.35.15s.33,3.25-1.37,4.93c0,0,1.58-3.3.89-4.87l-1.88.36S8.83,61.23,7,63.22c0,0,1.53-3.51.94-5.3l-1.8.61s.43,3.34-1.13,5c0,0,1.36-4.24.72-4.82a9.43,9.43,0,0,0-2,1S4,62.14,3,63c0,0,.61-2.92.31-3A9.91,9.91,0,0,0,.85,62.61a7.21,7.21,0,0,1,2.22-2.93A4,4,0,0,0,.84,60s.65-1.25,2.69-.66a9,9,0,0,1,1.82-1A8.7,8.7,0,0,0,2,57.56s1.49-.86,3.8.57l1.8-.65a12.46,12.46,0,0,0-3.75-1.27s1.66-.64,4.21,1.15L9.93,57a15,15,0,0,0-3.46-1.56s1.67-.26,4,1.47l1.26-.1s-1.53-.9-2-1.12-.44-.36-.44-.36a6,6,0,0,1,3,1.42A14.54,14.54,0,0,0,14.86,56.52Z"/></g><g class="cls-3"><path class="cls-4" d="M14.39,46.81S9.83,36.27,3.27,41.1A2,2,0,0,0,1.89,43s.54-.26.88.87A5.33,5.33,0,0,0,3.29,45,2.57,2.57,0,0,0,4.54,46h0s2.64,2.28,7.92,1a5.3,5.3,0,0,0,1.69.14l-1.61-1.36a3.44,3.44,0,0,1-2.22,1.28s2.21-1.18,2-1.49c-.05-.06-.89-.68-.89-.68S9.76,47.06,7.8,47.09c0,0,2.83-1.06,3.31-2.38l-1.33-.86s-1.64,2.32-3.87,2.44c0,0,2.91-1.22,3.57-2.61L8.06,43s-1.64,2.24-3.5,2.32c0,0,3.22-1.74,3.17-2.45A7.59,7.59,0,0,0,6,42.38S4.75,44,3.66,43.91c0,0,2-1.39,1.92-1.64a8.08,8.08,0,0,0-3,.17,5.87,5.87,0,0,1,3-.47,3.2,3.2,0,0,0-1.5-1.08s1.09-.37,2,1.14a7.39,7.39,0,0,1,1.67.42,7.16,7.16,0,0,0-1.55-2.34s1.38.34,1.93,2.51l1.44.64a10.12,10.12,0,0,0-1.5-2.89s1.35.56,1.85,3.08l1.31.82a12.15,12.15,0,0,0-1.17-2.9,4.8,4.8,0,0,1,1.53,3.15l.81.66s-.39-1.4-.54-1.8-.06-.46-.06-.46a4.92,4.92,0,0,1,.94,2.53A11.57,11.57,0,0,0,14.39,46.81Z"/></g><path class="cls-5" d="M160.65,114.83A6.27,6.27,0,0,0,160,113a6.34,6.34,0,0,0-1.13-1.24c-1.24-1.13-2.78-2.28-4.43-2a6.39,6.39,0,0,0-1.48.54c-.24.11-.48.23-.73.32a3.64,3.64,0,0,1-2.21.19c-.37-.1-.73-.28-1.1-.39a2.62,2.62,0,0,0-.54-.12c.36-.17.71-.35,1-.55a6.1,6.1,0,0,0,3.13-5.4,9,9,0,0,0-.58-2.15l-.66-1.83a8,8,0,0,0-1.1-2.26,5.8,5.8,0,0,0-2.27-1.6,21.73,21.73,0,0,0-5.82-1.35l-.13,0V73.79a1.37,1.37,0,0,0-1.37-1.38H138c-.11-.71-.23-1.41-.34-2.11A19.84,19.84,0,0,0,136,64.46a4.39,4.39,0,0,0-2.85-2.53,2.73,2.73,0,0,1-.75-.17c-.38-.19-.58-.6-.88-.91-.75-.78-2-.8-3-1.2a15.47,15.47,0,0,1-2.43-1.53,3.15,3.15,0,0,0-2.71-.54,1.37,1.37,0,0,1,0,.19l-.57-.26a6.27,6.27,0,0,1-1.76-1,5,5,0,0,1-1.24-2.25,2.76,2.76,0,0,1-.08-.27,8,8,0,0,0,2.14-4.09c0,.15.1.3.14.45a2.45,2.45,0,0,0,.17.45l.08.13a.88.88,0,0,0,.21.22.61.61,0,0,0,.28.11H123a.79.79,0,0,0,.57-.49.83.83,0,0,0,.06-.21.69.69,0,0,0,0-.13v-.31a.43.43,0,0,0,0-.11s0,0,0,0l0-.14v0l0-.1,0-.07v0h0c0-.06,0-.13-.05-.2a6.17,6.17,0,0,1-.09-1.82,19.93,19.93,0,0,1,.49-2.65l0-.15,0-.18c0-.13,0-.25.08-.38h0l.06-.31c0-.11,0-.19,0-.29v0a8.39,8.39,0,0,0,.08-1.94h0a4.11,4.11,0,0,0-1-2.44c-.43-.48-1-.83-1.4-1.33s-.59-1.06-1-1.52c-1.08-1.29-3.84-2.28-5.53-2.45-1.94-.2-5.08.3-6.64,1.45A6.47,6.47,0,0,0,107.31,37a7.9,7.9,0,0,1-2.76,2.75,3.28,3.28,0,0,0-1.26.8,2.21,2.21,0,0,0-.35.89,17,17,0,0,0-.35,3.41,4.13,4.13,0,0,0,.19,1.48,1.67,1.67,0,0,0,.08.2h0l.09.17,0,0a6.75,6.75,0,0,1,.56.93c0,.1.06.19.08.29a2.17,2.17,0,0,1,0,.76h0a.52.52,0,0,1,0,.11l0,.08a.17.17,0,0,1,0,.07,1.7,1.7,0,0,0,0,.22c0,.05,0,.11,0,.16a1.32,1.32,0,0,0,.12.62.57.57,0,0,0,.08.13.74.74,0,0,0,.23.2,2.38,2.38,0,0,0,.64.15,1.93,1.93,0,0,1,1.31,1.24,3,3,0,0,1,.15.42,6.61,6.61,0,0,1,.24,1.07c.29,0,.46-.27.57-.55a2.45,2.45,0,0,0,.08-.29l.12-.54a8,8,0,0,0,3.14,3.47c0,.14.1.28.14.42a2.9,2.9,0,0,1-.06,2.28,2.37,2.37,0,0,1-1.27,1,.81.81,0,0,0-.28-.24,1.31,1.31,0,0,0-1.38.39c-.69.62-1.25,1.52-2.16,1.72a2.58,2.58,0,0,0-1,.26,2.12,2.12,0,0,0-.44.59,2.09,2.09,0,0,1-1.77.88c-.31,0-.69-.09-.9.14s-.17.44-.35.61-.6.11-.93.1a1.75,1.75,0,0,0-1.25.54A2.93,2.93,0,0,0,97.78,62a10.62,10.62,0,0,0-1.66-1.1c-1.38-.93-2.06-2.58-2.78-4.09s-1.67-3.09-3.23-3.64c-.36-.13-.86-.14-1,.21a.77.77,0,0,0,0,.45A5.2,5.2,0,0,0,90.28,56a5.19,5.19,0,0,1,1.32,3.77c-.23,1.61-1.67,2.86-1.84,4.48-.07.71.11,1.43.1,2.14a6,6,0,0,0,0,1.34,8,8,0,0,0,.36,1,5.46,5.46,0,0,1,.24,1.61l.36,6.84a18.6,18.6,0,0,1-.65,5.06,15.39,15.39,0,0,0-1.08,3.1,10.66,10.66,0,0,0,.17,5.66c.33,1,.83,1.91,1.09,2.92a.14.14,0,0,0,0,.06l.09.64a5.9,5.9,0,0,0,.2.72,4.77,4.77,0,0,0,.37,1.18,3.38,3.38,0,0,0,1,1.21c-.25.49-.65.88-.92,1.35a4.17,4.17,0,0,0-.31,2.77,9.08,9.08,0,0,0,2.58,4.72.48.48,0,0,0-.17,0,2.62,2.62,0,0,0-1.18.42A8,8,0,0,0,88.39,115a3.52,3.52,0,0,0,.72,1.68,2.64,2.64,0,0,0,1.25.77,4.78,4.78,0,0,0,.93.18c2.12.17,4.17-.82,6.29-.9a16.48,16.48,0,0,1,2.11.1c1,.09,2,.14,3.07.16a4.08,4.08,0,0,0,3.68-1.65,4.53,4.53,0,0,0,.65-1c.9,0,1.9-.13,2.63-.19v.1a1.42,1.42,0,0,0,.37,1,1.58,1.58,0,0,0,.52.21,22.22,22.22,0,0,0,5.29.86,23.37,23.37,0,0,0,2.51-.2l3.15-.36a15.59,15.59,0,0,1,2.71.59c.91.31,1.76.77,2.65,1.13a26.06,26.06,0,0,0,6.49,1.43,1.34,1.34,0,0,0,1.08-.17c.36-.35.24-.92.14-1.41,0-.19-.07-.39-.1-.59a29.07,29.07,0,0,1,4.35,1.51l.25.11c.07.37.42.67.75,1.08a2.45,2.45,0,0,0,.38.47,1.31,1.31,0,0,0,.54.2,25.34,25.34,0,0,0,7.06.31,7.9,7.9,0,0,1,1.46,0,6.62,6.62,0,0,1,1,.24l2,.57a13.37,13.37,0,0,0,4.5.75,5.82,5.82,0,0,0,.92-.13,4.28,4.28,0,0,0,2.9-2C161.47,118.26,161.09,116.45,160.65,114.83ZM102.18,87.91a6.12,6.12,0,0,1-.57,2.15c-.22.44-.49.83-.69,1.27a6.92,6.92,0,0,0-.42,2l-.31,0c.16-.54.27-1.09.42-1.63A22.11,22.11,0,0,1,102.18,87.91Z"/><path class="cls-6" d="M104.84,114.38a3.3,3.3,0,0,1-.35-2.6,2.22,2.22,0,0,1,1.15-1.07,5.43,5.43,0,0,1,1.55-.39,21.7,21.7,0,0,1,5-.06,8.09,8.09,0,0,1-.36,2.88c-.2.86-.31,1-1.2,1C110.08,114.2,105,114.69,104.84,114.38Z"/><ellipse class="cls-7" cx="120.16" cy="101.93" rx="24.62" ry="6.89"/><ellipse class="cls-8" cx="120.16" cy="101.93" rx="24.62" ry="6.89"/><path class="cls-6" d="M124.58,65.58a7.67,7.67,0,0,1-4,3.58,9.82,9.82,0,0,1-3.13.6,9,9,0,0,1-3.46-.42,8,8,0,0,1-3.61-2.9,17.5,17.5,0,0,1-2.1-4.19,4.7,4.7,0,0,1-.43-2.38,3.4,3.4,0,0,0,2.32-1.28,2.85,2.85,0,0,0,0-2.26c-.06-.22-.13-.43-.21-.64-.17-.5-.76-1.45-.35-1.88.26-.27,1.37-.41,1.75-.58A16.5,16.5,0,0,1,115,51.65a8.55,8.55,0,0,1,3.37.22,1.06,1.06,0,0,1,.42.15,1,1,0,0,1,.31.46c.32.77.5,1.63.76,2.43a4.92,4.92,0,0,0,1.24,2.23,6.43,6.43,0,0,0,1.75,1l1.53.7a2,2,0,0,1,.72.47,1.76,1.76,0,0,1,.34.93A8.76,8.76,0,0,1,124.58,65.58Z"/><path class="cls-8" d="M119.85,54.91a7.92,7.92,0,0,1-9.58,1.42c-.06-.22-.13-.43-.21-.64-.17-.5-.76-1.45-.35-1.88.26-.27,1.37-.41,1.75-.58A16.5,16.5,0,0,1,115,51.65a8.55,8.55,0,0,1,3.37.22,1.06,1.06,0,0,1,.42.15,1,1,0,0,1,.31.46C119.41,53.25,119.59,54.11,119.85,54.91Z"/><circle class="cls-6" cx="114.14" cy="49.08" r="7.92"/><path class="cls-9" d="M138.26,74.78l-.65-3.94A19.07,19.07,0,0,0,136,65.06a4.39,4.39,0,0,0-2.86-2.51,2.74,2.74,0,0,1-.74-.17c-.38-.18-.59-.59-.88-.9-.75-.77-2-.79-3-1.18a15.79,15.79,0,0,1-2.42-1.52,3.22,3.22,0,0,0-2.71-.53,13.88,13.88,0,0,1-1,4.52,6.75,6.75,0,0,1-10.2,2.54,8.51,8.51,0,0,1-3-4.8c-.11-.46-.24-1-.66-1.19a1.31,1.31,0,0,0-1.37.38c-.7.62-1.25,1.51-2.16,1.71a1.36,1.36,0,0,0-1.41.84,2,2,0,0,1-1.76.87c-.31,0-.69-.08-.9.14s-.18.45-.35.61-.61.11-.93.1a1.88,1.88,0,0,0-1.53.86,5.2,5.2,0,0,0-.69,1.7c1.88,4.19,3.6,8.38,5.48,12.57a1.07,1.07,0,0,1,.14.52,1.2,1.2,0,0,1-.24.51,8.65,8.65,0,0,0-.79,5.09c.1,1.74.23,3.59-.55,5.15-.21.43-.49.82-.69,1.25a12,12,0,0,0-.37,5.12h38.91c-.74-2-.46-6.14-.31-8.3a30.23,30.23,0,0,0-.29-4.55C138.59,80.8,138.78,77.87,138.26,74.78Z"/><path class="cls-7" d="M140.26,95.53a3.72,3.72,0,0,1,1.82-.06,22.12,22.12,0,0,1,5.81,1.34,5.71,5.71,0,0,1,2.27,1.59,8.14,8.14,0,0,1,1.1,2.23l.66,1.81a8.78,8.78,0,0,1,.58,2.12c.2,2.17-1.28,4.21-3.14,5.34a19,19,0,0,1-6.2,1.95q-3.21.63-6.41,1.37a26,26,0,0,1-3,.6c-2.28.26-4.66-.13-6.83.63a26.07,26.07,0,0,1-2.6,1,15.49,15.49,0,0,1-1.79.28l-4.1.47a23.37,23.37,0,0,1-2.51.2,22.64,22.64,0,0,1-5.29-.85,1.19,1.19,0,0,1-.52-.21,1.34,1.34,0,0,1-.38-1c-.17-1.54-.33-3.08-.46-4.62a2.34,2.34,0,0,1,.2-1.46,2.31,2.31,0,0,1,1.63-.78,42.29,42.29,0,0,1,7.87-.55c1-1,2.65-1,4-1.55a11,11,0,0,0,1.39-.76,18.36,18.36,0,0,1,7.66-2.42,6.91,6.91,0,0,0,1.57-.22c1-.32,1.94-1.17,3-1A2.37,2.37,0,0,1,137,100a5.55,5.55,0,0,0,.46-.35,1.37,1.37,0,0,0,.27-1.15,3.34,3.34,0,0,1,0-1.22,1.82,1.82,0,0,1,.19-.43A2.32,2.32,0,0,1,140.26,95.53Z"/><path class="cls-10" d="M140.26,95.53a3.72,3.72,0,0,1,1.82-.06,22.12,22.12,0,0,1,5.81,1.34,5.71,5.71,0,0,1,2.27,1.59,8.14,8.14,0,0,1,1.1,2.23l.66,1.81a8.78,8.78,0,0,1,.58,2.12c.2,2.17-1.28,4.21-3.14,5.34a19,19,0,0,1-6.2,1.95q-3.21.63-6.41,1.37a26,26,0,0,1-3,.6c-2.28.26-4.66-.13-6.83.63a26.07,26.07,0,0,1-2.6,1,15.49,15.49,0,0,1-1.79.28l-4.1.47a23.37,23.37,0,0,1-2.51.2,22.64,22.64,0,0,1-5.29-.85,1.19,1.19,0,0,1-.52-.21,1.34,1.34,0,0,1-.38-1c-.17-1.54-.33-3.08-.46-4.62a2.34,2.34,0,0,1,.2-1.46,2.31,2.31,0,0,1,1.63-.78,42.29,42.29,0,0,1,7.87-.55c1-1,2.65-1,4-1.55a11,11,0,0,0,1.39-.76,18.36,18.36,0,0,1,7.66-2.42,6.91,6.91,0,0,0,1.57-.22c1-.32,1.94-1.17,3-1A2.37,2.37,0,0,1,137,100a5.55,5.55,0,0,0,.46-.35,1.37,1.37,0,0,0,.27-1.15,3.34,3.34,0,0,1,0-1.22,1.82,1.82,0,0,1,.19-.43A2.32,2.32,0,0,1,140.26,95.53Z"/><path class="cls-11" d="M106.42,115.45a4.09,4.09,0,0,1-3.67,1.63c-1,0-2-.07-3.08-.16a18.44,18.44,0,0,0-2.1-.09c-2.13.08-4.18,1-6.3.88a4.14,4.14,0,0,1-.92-.17,2.7,2.7,0,0,1-1.25-.76,3.38,3.38,0,0,1-.71-1.67,7.88,7.88,0,0,1,3.7-8,2.78,2.78,0,0,1,1.18-.41,2.58,2.58,0,0,1,1.19.26h0a9,9,0,0,1,3,2,1.74,1.74,0,0,0,.45.36,1.61,1.61,0,0,0,.53.1l2.26.14a5.4,5.4,0,0,1,1.14.16,8.4,8.4,0,0,1,1.19.52,15.54,15.54,0,0,0,3.88.9.56.56,0,0,1,.35.13.61.61,0,0,1,.11.23A4.41,4.41,0,0,1,106.42,115.45Z"/><path class="cls-8" d="M94.48,106.94a13.39,13.39,0,0,0-2.26,2.83,13.89,13.89,0,0,0-1.85,5.6,10.49,10.49,0,0,0,0,2.17,2.7,2.7,0,0,1-1.25-.76,3.38,3.38,0,0,1-.71-1.67,7.88,7.88,0,0,1,3.7-8,2.78,2.78,0,0,1,1.18-.41,2.58,2.58,0,0,1,1.19.26Z"/><path class="cls-6" d="M138.29,111.22c1.26,0,2.68-.1,3.61.75A4.62,4.62,0,0,1,143,115.3l.07,1.39a2.82,2.82,0,0,1-.13,1.26,1.93,1.93,0,0,1-1.89,1,6.33,6.33,0,0,1-2.15-.67,30.93,30.93,0,0,0-5.86-1.85c.07-1,.18-1.91.33-2.87a5.39,5.39,0,0,1,.56-2.31c.47-.57,1.08-.26,1.71-.15A14.23,14.23,0,0,0,138.29,111.22Z"/><path class="cls-7" d="M104.85,97.26c0,.17-.27,0-.29-.18A4.2,4.2,0,0,0,102,94a8.35,8.35,0,0,0-4.15-.45c-2.11.19-4.47,1-5.25,3a14.71,14.71,0,0,1-.49,1.41c-.24.48-.65.87-.92,1.34a4.1,4.1,0,0,0-.31,2.74A9.85,9.85,0,0,0,95,108a25,25,0,0,0,6.8,3.12,118.35,118.35,0,0,0,19.28,4.6,18.74,18.74,0,0,1,3.15.65c.91.31,1.76.76,2.65,1.12a26.4,26.4,0,0,0,6.49,1.42,1.34,1.34,0,0,0,1.08-.17c.36-.34.24-.92.14-1.39a7.41,7.41,0,0,1,.87-5.29,3.47,3.47,0,0,0,.78-2,2,2,0,0,0-1.75-1.56,8.79,8.79,0,0,0-2.5.17,1.4,1.4,0,0,1-.86-.08,1.63,1.63,0,0,1-.34-.3,3.77,3.77,0,0,0-4.39-.61c-.31.17-.78-.21-1.1-.36l-3.61-1.64a85.48,85.48,0,0,0-12.74-5,2.66,2.66,0,0,1-1-.41,8.21,8.21,0,0,1-.58-.6,7.33,7.33,0,0,0-1.58-.87C105.32,98.57,104.73,97.85,104.85,97.26Z"/><path class="cls-11" d="M160.66,119.76a4.29,4.29,0,0,1-2.91,2,5.73,5.73,0,0,1-.91.14,13.62,13.62,0,0,1-4.5-.75l-2-.56a6.62,6.62,0,0,0-1-.24,7.9,7.9,0,0,0-1.46,0,25.63,25.63,0,0,1-7.05-.31,1.18,1.18,0,0,1-.55-.2,3.32,3.32,0,0,1-.38-.46c-.54-.66-1.13-1-.48-1.9.37-.5,1.05-.75,1.34-1.32a2.94,2.94,0,0,0-.07-2c-.23-.82-1-1.17-1.27-1.92a1.35,1.35,0,0,1,.66-1.53,2.79,2.79,0,0,1,1.76-.26c.59.08,1.18.25,1.78.3,1.77.14,3.57-.77,5.27-.26.37.12.72.3,1.1.4a3.79,3.79,0,0,0,2.21-.19l.73-.32a6,6,0,0,1,1.47-.53c1.66-.29,3.19.86,4.44,2a6,6,0,0,1,1.13,1.22,6.52,6.52,0,0,1,.69,1.78C161.07,116.5,161.45,118.3,160.66,119.76Z"/><path class="cls-8" d="M160.66,119.76a4.29,4.29,0,0,1-2.91,2,5.7,5.7,0,0,0,.62-3,9.46,9.46,0,0,0-1.74-4.54,16,16,0,0,0-1.92-2.33c-.55-.56-1.22-1-1.81-1.5a5.87,5.87,0,0,1,1.47-.53c1.65-.28,3.19.86,4.44,2a6.5,6.5,0,0,1,1.12,1.22,5.93,5.93,0,0,1,.69,1.78C161.07,116.5,161.45,118.3,160.66,119.76Z"/><path class="cls-11" d="M108.67,36.23a6.35,6.35,0,0,0-1.38,1.59,7.87,7.87,0,0,1-2.77,2.73,3.32,3.32,0,0,0-1.26.78,2.18,2.18,0,0,0-.33.89,17.38,17.38,0,0,0-.36,3.37,3.73,3.73,0,0,0,.28,1.66,5.87,5.87,0,0,1,.75,1.42,4.62,4.62,0,0,1-.14,1.22,1.05,1.05,0,0,0,.42,1.1,2.3,2.3,0,0,0,.64.15c1.14.25,1.52,1.6,1.7,2.71.39,0,.56-.47.64-.83l1.2-5.31c.13-.57.34-1.24.91-1.44a2.91,2.91,0,0,1,1.21,0c1.57.12,2.91-1.09,4.45-1.43a5.77,5.77,0,0,1,1.5-.1c1.21.06,2.62.56,2.88,1.7,0,.18.07.4.24.49s.35,0,.54,0c.77-.07,1.22.79,1.45,1.5L122,51c.12.4.33.86.75.91a.79.79,0,0,0,.78-.69,3.09,3.09,0,0,0-.15-1.12c-.38-1.69.2-3.43.56-5.13s.41-3.65-.78-5c-.43-.47-1-.82-1.4-1.32s-.59-1-1-1.51C119.75,36,117,35,115.3,34.81,113.37,34.6,110.23,35.09,108.67,36.23Z"/><g class="cls-3"><path d="M122.8,50.74c-.43-.05-.63-.52-.75-.9l-.81-2.58c-.22-.72-.67-1.58-1.45-1.5-.17,0-.37.09-.53,0s-.2-.31-.24-.5c-.26-1.14-1.67-1.63-2.89-1.69a5.42,5.42,0,0,0-1.5.1c-1.55.34-2.87,1.54-4.44,1.42a3.1,3.1,0,0,0-1.21,0c-.58.2-.79.87-.92,1.45l-1.19,5.3c-.08.36-.26.81-.65.83-.17-1.11-.55-2.45-1.7-2.71a2.23,2.23,0,0,1-.63-.15.77.77,0,0,1-.34-.37c0,.16-.06.32-.08.48a1,1,0,0,0,.42,1.1,2.23,2.23,0,0,0,.63.15c1.15.25,1.53,1.6,1.7,2.71.39,0,.57-.47.65-.83l1.19-5.31c.13-.57.35-1.24.92-1.44a2.92,2.92,0,0,1,1.21,0c1.57.12,2.9-1.09,4.44-1.43a5.8,5.8,0,0,1,1.5-.1c1.21.06,2.62.56,2.88,1.7,0,.18.07.4.24.49s.35,0,.54,0c.77-.07,1.22.79,1.45,1.5s.53,1.73.8,2.58c.12.4.33.86.75.91a.79.79,0,0,0,.78-.69,2.39,2.39,0,0,0-.1-.92A.72.72,0,0,1,122.8,50.74Z"/><path d="M103.6,47.46a6,6,0,0,0-.75-1.41,2.9,2.9,0,0,1-.26-1c0,.2,0,.39,0,.58a3.73,3.73,0,0,0,.27,1.66c.19.39.51.74.66,1.14A2.46,2.46,0,0,0,103.6,47.46Z"/><path d="M124,43.8a15.42,15.42,0,0,0-.65,4.53A29.65,29.65,0,0,1,124,45a8.72,8.72,0,0,0,.2-2.55A10.47,10.47,0,0,1,124,43.8Z"/></g><path class="cls-6" d="M104.28,82.39c-.21,3.41-2.72,6.24-3.68,9.53a19.23,19.23,0,0,1-.72,2.46,7.75,7.75,0,0,1-3.61,3.52,5.45,5.45,0,0,1-1.78.65,3.42,3.42,0,0,1-3.43-1.82,15.2,15.2,0,0,1-.69-2.59c-.26-1-.76-1.91-1.09-2.88a10.48,10.48,0,0,1-.17-5.61A16.94,16.94,0,0,1,91,81.08l.36-.63a14.69,14.69,0,0,1,1.2-1.72,19.09,19.09,0,0,1,3.67-3.15.88.88,0,0,1,.35-.17h0a.9.9,0,0,1,.42.1,34.73,34.73,0,0,1,5.23,2.83c.59.39,1.52.84,1.83,1.51A6.19,6.19,0,0,1,104.28,82.39Z"/><path class="cls-9" d="M97.44,66.65a1.73,1.73,0,0,0-.38.62,29,29,0,0,0-2.43,9.91.87.87,0,0,1-.11.48,3.33,3.33,0,0,1-.25.28,1,1,0,0,0,.11,1.34l.05,0A1.84,1.84,0,0,1,96,78.56c2.89-.23,5.72,1.12,8.62,1-.2-.71-.5-1.39-.67-2.11-.73-3.18,1.11-6.64,0-9.7a2.53,2.53,0,0,0-1.2-1.49,3.27,3.27,0,0,0-.76-.2c-.74-.13-2.2-.7-2.91-.47-.26.08-.36.33-.58.48S97.72,66.37,97.44,66.65Z"/><path class="cls-8" d="M98.63,95.12a5.11,5.11,0,0,1-4.31,2.5A3.38,3.38,0,0,1,93,97.36a3.8,3.8,0,0,1-2-2.87c-.24-1.18-.16-2.4-.33-3.59-.13-1-.41-1.87-.55-2.82-.36-2.35.34-4.66.84-7,.12-.21.24-.42.37-.63a13.5,13.5,0,0,1,1.19-1.72,19.51,19.51,0,0,1,3.68-3.15H94.82a.24.24,0,0,1,.33.06.21.21,0,0,1,0,.11c.14,1.2,1.84,2.41,2.21,3.58.23.72.5,1.42.69,2.16s.25,1.25.33,1.89q.36,2.67.73,5.34C99.45,90.88,99.71,93.23,98.63,95.12Z"/><path class="cls-6" d="M96.35,72.52,98,67.3a8.9,8.9,0,0,0,.53-2.39,3.07,3.07,0,0,0-.76-2.26,10.33,10.33,0,0,0-1.66-1.09c-1.38-.93-2.07-2.55-2.78-4.05s-1.67-3.06-3.23-3.61c-.36-.13-.86-.14-1,.21a.77.77,0,0,0,0,.45,5.06,5.06,0,0,0,1.22,2.06,5.15,5.15,0,0,1,1.32,3.74c-.23,1.6-1.67,2.83-1.84,4.44-.07.7.11,1.41.1,2.12a5.82,5.82,0,0,0,0,1.32,8.87,8.87,0,0,0,.36,1,5.31,5.31,0,0,1,.24,1.58l.36,6.78c.2,3.66-1.79,7.23-1.24,10.84.14,1,.42,1.87.55,2.82.18,1.2.1,2.41.33,3.6a3.82,3.82,0,0,0,2,2.86,3.39,3.39,0,0,0,1.38.26,5.08,5.08,0,0,0,4.3-2.5c1.08-1.89.82-4.23.53-6.39l-.73-5.34c-.08-.63-.19-1.27-.33-1.89s-.46-1.44-.69-2.16C96.16,77.33,95.61,74.85,96.35,72.52Z"/><rect class="cls-11" x="103.55" y="72.92" width="38.39" height="24.44" rx="1.37"/><rect class="cls-12" x="103.55" y="72.92" width="38.39" height="24.44" rx="1.37"/><circle class="cls-13" cx="122.66" cy="85.14" r="1.03"/><path class="cls-11" d="M77.37,105.17h2.08a4.3,4.3,0,0,1,4.3,4.3v6.39H73.06v-6.39A4.31,4.31,0,0,1,77.37,105.17Z"/><path class="cls-8" d="M77.37,105.17h2.08a4.3,4.3,0,0,1,4.3,4.3v6.39H73.06v-6.39A4.31,4.31,0,0,1,77.37,105.17Z"/><circle class="cls-11" cx="77.98" cy="106.67" r="0.86"/><circle class="cls-11" cx="77.98" cy="105.6" r="0.86"/><circle class="cls-11" cx="77.98" cy="104.53" r="0.86"/><circle class="cls-11" cx="77.98" cy="103.46" r="0.86"/><circle class="cls-11" cx="77.98" cy="102.39" r="0.86"/><circle class="cls-11" cx="77.98" cy="101.32" r="0.86"/><circle class="cls-11" cx="77.98" cy="100.25" r="0.86"/><circle class="cls-11" cx="79.26" cy="100.68" r="0.86"/><circle class="cls-11" cx="80.12" cy="100.25" r="0.86"/><circle class="cls-11" cx="80.98" cy="99.82" r="0.86"/><circle class="cls-11" cx="77.98" cy="99.18" r="0.86"/><circle class="cls-11" cx="77.98" cy="98.11" r="0.86"/><circle class="cls-11" cx="77.98" cy="97.04" r="0.86"/><circle class="cls-11" cx="77.98" cy="95.97" r="0.86"/><path class="cls-4" d="M81.53,93.22l-.64.06a4.85,4.85,0,0,0,.55-.56,3.59,3.59,0,0,0-.52-1,1.65,1.65,0,0,1-.69.22c-.21,0-.42.06-.64.07a11.1,11.1,0,0,0,.82-.86,3.61,3.61,0,1,0,1.21,2.69,3.18,3.18,0,0,0-.06-.62Z"/><path class="cls-4" d="M84.39,97.47a1.86,1.86,0,0,1-.72.24l-.64.06a6.45,6.45,0,0,0,.63-.65,2.14,2.14,0,1,0,1.53,2.61,2.16,2.16,0,0,0-.8-2.27Z"/><circle class="cls-11" cx="76.7" cy="100.68" r="0.86"/><circle class="cls-11" cx="75.84" cy="100.25" r="0.86"/><circle class="cls-11" cx="74.99" cy="99.82" r="0.86"/><path class="cls-4" d="M71.58,97.47a1.81,1.81,0,0,0,.72.24q.32,0,.63.06a7.76,7.76,0,0,1-.63-.65,2.14,2.14,0,1,1-.72.34Z"/><path class="cls-11" d="M77.37,105.81h2.08a4.3,4.3,0,0,1,4.3,4.3v5.66a.72.72,0,0,1-.73.73H73.79a.73.73,0,0,1-.73-.73v-5.66A4.31,4.31,0,0,1,77.37,105.81Z"/><g class="cls-3"><path d="M81.59,93.45a3.31,3.31,0,0,1-.27.26l.29,0A1.94,1.94,0,0,0,81.59,93.45Z"/><path d="M80,92.43l.64-.07a2.21,2.21,0,0,0,.56-.15,5.09,5.09,0,0,0-.3-.5,1.09,1.09,0,0,1-.35.15A4.91,4.91,0,0,1,80,92.43Z"/><path d="M74.77,94.26a3.63,3.63,0,0,1,5.6-3.05l0-.06a3.63,3.63,0,1,0-4.83,5.42l0,0A3.66,3.66,0,0,1,74.77,94.26Z"/></g><g class="cls-3"><path d="M83,98.2c.21,0,.42,0,.64-.07a1.58,1.58,0,0,0,.72-.24,2.17,2.17,0,0,1,.86,1.52c0-.08,0-.15,0-.23a2.14,2.14,0,0,0-.86-1.72,1.71,1.71,0,0,1-.72.24l-.17,0A5.44,5.44,0,0,1,83,98.2Z"/><path d="M83.11,97.47l.22,0,.33-.37a2.12,2.12,0,0,0-2.61,1.51,2,2,0,0,0-.07.55,1.7,1.7,0,0,0,0,.22A2.14,2.14,0,0,1,83.11,97.47Z"/></g><g class="cls-3"><path d="M72.93,98.2c-.21,0-.42,0-.63-.07a1.51,1.51,0,0,1-.72-.24,2.1,2.1,0,0,0-.86,1.52,1.79,1.79,0,0,1,0-.23,2.14,2.14,0,0,1,.86-1.72,1.71,1.71,0,0,0,.72.24l.18,0A4.25,4.25,0,0,0,72.93,98.2Z"/><path d="M72.85,97.47l-.22,0-.33-.37a2.12,2.12,0,0,1,2.61,1.51,2,2,0,0,1,.08.55,1.7,1.7,0,0,1,0,.22A2.14,2.14,0,0,0,72.85,97.47Z"/></g><rect class="cls-4" x="27.22" y="30.92" width="38.9" height="15.15"/><rect class="cls-14" x="27.22" y="30.92" width="63.86" height="15.15" rx="2.07"/><path class="cls-13" d="M62.21,37.68a3.12,3.12,0,0,0-5.83-.82,2.49,2.49,0,0,0,.27,5h5.41a2.09,2.09,0,0,0,2.08-2.09A2.06,2.06,0,0,0,62.21,37.68Zm-2.4,1.23v1.58H58.48V38.91H57.07l2.08-2.08,2.08,2.08Z"/></g></g></g></svg>